<svg width="136" height="94" viewBox="0 0 136 94" fill="none" xmlns="http://www.w3.org/2000/svg">
<rect width="136" height="94" rx="13" fill="#74DE80"/>
<mask id="mask0_271_2838" style="mask-type:alpha" maskUnits="userSpaceOnUse" x="0" y="44" width="136" height="50">
<rect y="44.4595" width="136" height="49.5405" rx="12" fill="#C4C4C4"/>
</mask>
<g mask="url(#mask0_271_2838)">
<path opacity="0.3" d="M-24.7273 78.1216C-18.1914 68.6119 -2.13822 62.7765 23.3223 60.6554C52.0887 58.2589 65.4503 76.5805 92.3901 72.0878C112.189 68.7861 107.521 60.4034 122.793 54.6216C135.616 49.7675 144.347 47.4285 160.727 44.4595" stroke="white"/>
<path opacity="0.3" d="M-24.7273 85.7432C-18.1914 76.2335 -2.13822 70.3981 23.3223 68.277C52.0887 65.8805 65.4503 84.2021 92.3901 79.7095C112.189 76.4077 107.521 68.025 122.793 62.2432C135.616 57.3892 144.347 55.0501 160.727 52.0811" stroke="white"/>
<path opacity="0.3" d="M-24.7273 83.2027C-18.1914 73.693 -2.13822 67.8576 23.3223 65.7365C52.0887 63.34 65.4503 81.6616 92.3901 77.1689C112.189 73.8671 107.521 65.4845 122.793 59.7027C135.616 54.8486 144.347 52.5096 160.727 49.5405" stroke="white"/>
<path opacity="0.3" d="M-24.7273 80.6622C-18.1914 71.1525 -2.13822 65.3171 23.3223 63.1959C52.0887 60.7994 65.4503 79.1211 92.3901 74.6284C112.189 71.3266 107.521 62.9439 122.793 57.1622C135.616 52.3081 144.347 49.9691 160.727 47" stroke="white"/>
<path d="M-4.94556 56.527C0.47818 66.0367 13.7998 71.8721 34.928 73.9932C58.7996 76.3898 69.8875 58.0681 92.2433 62.5608C108.673 65.8626 104.799 74.2452 117.473 80.027C128.114 84.8811 135.359 87.2201 148.952 90.1892" stroke="white" stroke-width="1.2"/>
<path d="M-4.94556 48.9054C0.47818 58.4151 13.7998 64.2505 34.928 66.3716C58.7996 68.7681 69.8875 50.4465 92.2433 54.9392C108.673 58.241 104.799 66.6236 117.473 72.4054C128.114 77.2595 135.359 79.5985 148.952 82.5676" stroke="white" stroke-width="1.2"/>
<path d="M-4.94556 51.4459C0.47818 60.9556 13.7998 66.791 34.928 68.9122C58.7996 71.3087 69.8875 52.987 92.2433 57.4797C108.673 60.7815 104.799 69.1642 117.473 74.9459C128.114 79.8 135.359 82.139 148.952 85.1081" stroke="white" stroke-width="1.2"/>
<path d="M-4.94556 53.9865C0.47818 63.4962 13.7998 69.3316 34.928 71.4527C58.7996 73.8492 69.8875 55.5276 92.2433 60.0203C108.673 63.322 104.799 71.7047 117.473 77.4865C128.114 82.3406 135.359 84.6796 148.952 87.6486" stroke="white" stroke-width="1.2"/>
</g>
<path d="M15.551 25.7147H11.477L10.777 27.7027H9.11101L12.597 17.9587H14.445L17.931 27.7027H16.251L15.551 25.7147ZM15.103 24.4127L13.521 19.8907L11.925 24.4127H15.103ZM21.0427 17.9727V27.7027H19.4467V17.9727H21.0427ZM27.8249 21.8787H36.5889V22.8307H27.8249V21.8787ZM26.4249 26.2047H37.8909V27.1707H26.4249V26.2047ZM31.5629 22.4667H32.7109V26.5127H31.5629V22.4667ZM27.8249 17.2027H28.9869V22.2987H27.8249V17.2027ZM39.7098 24.8047H40.5498C42.0898 24.8047 43.4898 24.7487 45.1978 24.4547L45.2958 25.4207C43.5458 25.7287 42.1178 25.7707 40.5498 25.7707H39.7098V24.8047ZM39.6818 17.5107H44.4278V21.9627H40.8438V25.1687H39.7098V21.0107H43.2938V18.4627H39.6818V17.5107ZM48.9218 16.1387H50.0418V28.7947H48.9218V16.1387ZM46.7798 21.1367H49.2158V22.0887H46.7798V21.1367ZM46.0518 16.4187H47.1438V28.1507H46.0518V16.4187ZM58.9414 17.9447H59.8654V20.0027C59.8654 22.6347 58.2554 25.3507 56.2814 26.3587L55.6094 25.4347C57.4154 24.5527 58.9414 22.1447 58.9414 20.0027V17.9447ZM59.1514 17.9447H60.0754V20.0027C60.0754 22.0047 61.5034 24.2587 63.3374 25.1267L62.6794 26.0507C60.6774 25.0567 59.1514 22.5087 59.1514 20.0027V17.9447ZM56.0574 17.4267H62.8754V18.4067H56.0574V17.4267ZM64.3734 16.1387H65.5494V28.7947H64.3734V16.1387ZM65.2694 21.2487H67.6214V22.2287H65.2694V21.2487ZM68.6983 22.3687H80.1363V23.3207H68.6983V22.3687ZM73.8363 20.3387H74.9843V22.7607H73.8363V20.3387ZM70.1403 19.9747H78.8063V20.9267H70.1403V19.9747ZM70.1403 16.7127H78.7083V17.6507H71.2883V20.5347H70.1403V16.7127ZM74.3963 24.2307C77.0983 24.2307 78.7363 25.0567 78.7363 26.4987C78.7363 27.9687 77.0983 28.7807 74.3963 28.7807C71.6943 28.7807 70.0563 27.9687 70.0563 26.4987C70.0563 25.0567 71.6943 24.2307 74.3963 24.2307ZM74.3963 25.1267C72.4223 25.1267 71.2323 25.6307 71.2323 26.4987C71.2323 27.3807 72.4223 27.8707 74.3963 27.8707C76.3843 27.8707 77.5603 27.3807 77.5603 26.4987C77.5603 25.6307 76.3843 25.1267 74.3963 25.1267ZM94.8879 16.1387H95.9939V28.7947H94.8879V16.1387ZM92.8859 21.2347H95.3219V22.2147H92.8859V21.2347ZM92.1299 16.4047H93.2219V28.1647H92.1299V16.4047ZM87.8179 18.0987H88.7279V19.5547C88.7279 22.5927 87.7339 25.0287 85.7879 26.1907L85.0739 25.2947C86.8939 24.2867 87.8179 22.1307 87.8179 19.5547V18.0987ZM88.0279 18.0987H88.9379V19.5547C88.9379 21.8787 89.8759 23.9367 91.6539 24.8467L90.9679 25.7427C89.0359 24.6787 88.0279 22.3407 88.0279 19.5547V18.0987ZM85.3679 17.6227H91.2479V18.5887H85.3679V17.6227ZM100.739 16.9227H101.663V18.6167C101.663 20.5067 100.571 22.4947 98.7088 23.3207L98.0788 22.4107C99.7448 21.6827 100.739 20.0447 100.739 18.6167V16.9227ZM100.921 16.9227H101.845V18.6167C101.845 20.0167 102.797 21.4447 104.421 22.0747L103.791 22.9567C101.971 22.2287 100.921 20.4787 100.921 18.6167V16.9227ZM107.641 16.1527H108.747V23.9507H107.641V16.1527ZM105.625 19.5267H108.019V20.4787H105.625V19.5267ZM104.925 16.3907H106.031V23.5447H104.925V16.3907ZM104.589 24.2307C107.193 24.2307 108.817 25.0707 108.817 26.5127C108.817 27.9407 107.193 28.7667 104.589 28.7667C101.971 28.7667 100.375 27.9407 100.375 26.5127C100.375 25.0707 101.971 24.2307 104.589 24.2307ZM104.589 25.1407C102.685 25.1407 101.509 25.6447 101.509 26.5127C101.509 27.3667 102.685 27.8707 104.589 27.8707C106.493 27.8707 107.655 27.3667 107.655 26.5127C107.655 25.6447 106.493 25.1407 104.589 25.1407Z" fill="white"/>
<path d="M11.056 31.2052H11.677V32.0332C11.677 33.5992 10.795 34.8952 9.43601 35.4262L9.04001 34.8232C10.264 34.3732 11.056 33.2752 11.056 32.0332V31.2052ZM11.191 31.2052H11.803V32.0872C11.803 33.1852 12.613 34.2022 13.783 34.6072L13.387 35.1922C12.082 34.7062 11.191 33.5002 11.191 32.0872V31.2052ZM14.647 30.7822H15.394V35.7142H14.647V30.7822ZM15.187 32.8792H16.6V33.5092H15.187V32.8792ZM12.802 35.9392C14.467 35.9392 15.475 36.4882 15.475 37.4242C15.475 38.3602 14.467 38.9002 12.802 38.9002C11.137 38.9002 10.129 38.3602 10.129 37.4242C10.129 36.4882 11.137 35.9392 12.802 35.9392ZM12.802 36.5332C11.596 36.5332 10.858 36.8572 10.858 37.4242C10.858 37.9912 11.596 38.3152 12.802 38.3152C14.008 38.3152 14.746 37.9912 14.746 37.4242C14.746 36.8572 14.008 36.5332 12.802 36.5332ZM22.9173 30.7912H23.6643V36.2992H22.9173V30.7912ZM23.3493 33.2302H24.8523V33.8602H23.3493V33.2302ZM21.0543 36.4072C22.7463 36.4072 23.7273 36.8482 23.7273 37.6582C23.7273 38.4682 22.7463 38.9092 21.0543 38.9092C19.3713 38.9092 18.3903 38.4682 18.3903 37.6582C18.3903 36.8482 19.3713 36.4072 21.0543 36.4072ZM21.0543 36.9652C19.8213 36.9652 19.1373 37.2082 19.1373 37.6582C19.1373 38.1082 19.8213 38.3512 21.0543 38.3512C22.2783 38.3512 22.9713 38.1082 22.9713 37.6582C22.9713 37.2082 22.2783 36.9652 21.0543 36.9652ZM19.4883 34.4812H20.2353V35.5972H19.4883V34.4812ZM17.4093 35.9392L17.3103 35.3452C18.7683 35.3452 20.7663 35.3272 22.4313 35.0842L22.4943 35.6062C20.7663 35.9212 18.8313 35.9392 17.4093 35.9392ZM17.5173 31.4842H22.1883V32.0422H17.5173V31.4842ZM19.8573 32.3842C21.0093 32.3842 21.7473 32.8162 21.7473 33.5362C21.7473 34.2562 21.0093 34.6882 19.8573 34.6882C18.7053 34.6882 17.9583 34.2562 17.9583 33.5362C17.9583 32.8162 18.7053 32.3842 19.8573 32.3842ZM19.8573 32.8882C19.1283 32.8882 18.6603 33.1402 18.6603 33.5362C18.6603 33.9412 19.1283 34.1842 19.8573 34.1842C20.5863 34.1842 21.0453 33.9412 21.0453 33.5362C21.0453 33.1402 20.5863 32.8882 19.8573 32.8882ZM19.4883 30.7192H20.2353V31.6912H19.4883V30.7192ZM28.9376 33.9412H30.4766V34.5622H28.9376V33.9412ZM31.8356 30.7822H32.5556V38.9182H31.8356V30.7822ZM30.2246 30.9532H30.9356V38.5132H30.2246V30.9532ZM27.4706 31.4572C28.5236 31.4572 29.2076 32.5462 29.2076 34.2922C29.2076 36.0382 28.5236 37.1272 27.4706 37.1272C26.4176 37.1272 25.7426 36.0382 25.7426 34.2922C25.7426 32.5462 26.4176 31.4572 27.4706 31.4572ZM27.4706 32.1502C26.8316 32.1502 26.4266 32.9782 26.4266 34.2922C26.4266 35.6062 26.8316 36.4342 27.4706 36.4342C28.1186 36.4342 28.5236 35.6062 28.5236 34.2922C28.5236 32.9782 28.1186 32.1502 27.4706 32.1502ZM36.5938 31.3312H40.3288V34.8232H36.5938V31.3312ZM39.5998 31.9342H37.3228V34.2202H39.5998V31.9342ZM41.8228 30.7822H42.5698V35.4172H41.8228V30.7822ZM42.3628 32.7352H43.7758V33.3562H42.3628V32.7352ZM39.6538 36.1822H40.2928V36.3982C40.2928 37.6762 38.9518 38.6212 37.3498 38.8912L37.0618 38.3152C38.4658 38.0992 39.6538 37.3072 39.6538 36.3982V36.1822ZM39.7978 36.1822H40.4368V36.3982C40.4368 37.2892 41.6428 38.0992 43.0198 38.3242L42.7408 38.9002C41.1478 38.6302 39.7978 37.6492 39.7978 36.3982V36.1822ZM37.3768 35.9032H42.7138V36.4972H37.3768V35.9032ZM50.7321 30.7822H51.4521V38.9182H50.7321V30.7822ZM47.2041 34.1032H49.2561V34.7062H47.2041V34.1032ZM49.0401 30.9892H49.7421V38.5042H49.0401V30.9892ZM47.3031 31.8082H48.0231C48.0231 33.9412 47.1681 35.8582 44.9721 37.1632L44.5311 36.6322C46.4481 35.4802 47.3031 33.8602 47.3031 31.9432V31.8082ZM44.8911 31.8082H47.5821V32.4202H44.8911V31.8082ZM9.98501 46.4722H15.619V47.0842H9.98501V46.4722ZM9.08501 49.2532H16.456V49.8742H9.08501V49.2532ZM12.388 46.8502H13.126V49.4512H12.388V46.8502ZM9.98501 43.4662H10.732V46.7422H9.98501V43.4662ZM17.6253 48.3532H18.1653C19.1553 48.3532 20.0553 48.3172 21.1533 48.1282L21.2163 48.7492C20.0913 48.9472 19.1733 48.9742 18.1653 48.9742H17.6253V48.3532ZM17.6073 43.6642H20.6583V46.5262H18.3543V48.5872H17.6253V45.9142H19.9293V44.2762H17.6073V43.6642ZM23.5473 42.7822H24.2673V50.9182H23.5473V42.7822ZM22.1703 45.9952H23.7363V46.6072H22.1703V45.9952ZM21.7023 42.9622H22.4043V50.5042H21.7023V42.9622ZM25.6346 46.5622H33.0146V47.1292H25.6346V46.5622ZM26.5076 47.7862H32.0876V49.5232H27.2726V50.4772H26.5346V49.0102H31.3586V48.3172H26.5076V47.7862ZM26.5346 50.2792H32.3486V50.8192H26.5346V50.2792ZM26.5706 43.0162H32.0606V44.7082H27.3266V45.5902H26.5886V44.2042H31.3316V43.5472H26.5706V43.0162ZM26.5886 45.4102H32.2136V45.9502H26.5886V45.4102ZM42.4798 42.7822H43.1908V50.9182H42.4798V42.7822ZM41.1928 46.0582H42.7588V46.6882H41.1928V46.0582ZM40.7068 42.9532H41.4088V50.5132H40.7068V42.9532ZM37.9348 44.0422H38.5198V44.9782C38.5198 46.9312 37.8808 48.4972 36.6298 49.2442L36.1708 48.6682C37.3408 48.0202 37.9348 46.6342 37.9348 44.9782V44.0422ZM38.0698 44.0422H38.6548V44.9782C38.6548 46.4722 39.2578 47.7952 40.4008 48.3802L39.9598 48.9562C38.7178 48.2722 38.0698 46.7692 38.0698 44.9782V44.0422ZM36.3598 43.7362H40.1398V44.3572H36.3598V43.7362ZM46.2411 43.2862H46.8351V44.3752C46.8351 45.5902 46.1331 46.8682 44.9361 47.3992L44.5311 46.8142C45.6021 46.3462 46.2411 45.2932 46.2411 44.3752V43.2862ZM46.3581 43.2862H46.9521V44.3752C46.9521 45.2752 47.5641 46.1932 48.6081 46.5982L48.2031 47.1652C47.0331 46.6972 46.3581 45.5722 46.3581 44.3752V43.2862ZM50.6781 42.7912H51.3891V47.8042H50.6781V42.7912ZM49.3821 44.9602H50.9211V45.5722H49.3821V44.9602ZM48.9321 42.9442H49.6431V47.5432H48.9321V42.9442ZM48.7161 47.9842C50.3901 47.9842 51.4341 48.5242 51.4341 49.4512C51.4341 50.3692 50.3901 50.9002 48.7161 50.9002C47.0331 50.9002 46.0071 50.3692 46.0071 49.4512C46.0071 48.5242 47.0331 47.9842 48.7161 47.9842ZM48.7161 48.5692C47.4921 48.5692 46.7361 48.8932 46.7361 49.4512C46.7361 50.0002 47.4921 50.3242 48.7161 50.3242C49.9401 50.3242 50.6871 50.0002 50.6871 49.4512C50.6871 48.8932 49.9401 48.5692 48.7161 48.5692ZM52.8014 44.1682H56.8334V44.7802H52.8014V44.1682ZM54.8174 45.3202C55.8344 45.3202 56.5724 46.0852 56.5724 47.1832C56.5724 48.2722 55.8344 49.0372 54.8174 49.0372C53.8094 49.0372 53.0714 48.2722 53.0714 47.1832C53.0714 46.0852 53.8094 45.3202 54.8174 45.3202ZM54.8174 45.9592C54.1964 45.9592 53.7464 46.4632 53.7464 47.1832C53.7464 47.9032 54.1964 48.4072 54.8174 48.4072C55.4474 48.4072 55.9064 47.9032 55.9064 47.1832C55.9064 46.4632 55.4474 45.9592 54.8174 45.9592ZM58.9844 42.7822H59.7044V50.9182H58.9844V42.7822ZM57.6884 46.2022H59.2274V46.8232H57.6884V46.2022ZM57.2474 42.9622H57.9494V50.5222H57.2474V42.9622ZM54.4574 43.0162H55.1954V44.5462H54.4574V43.0162ZM62.8987 46.9672H63.6367V49.4062H62.8987V46.9672ZM65.9047 46.9672H66.6517V49.4062H65.9047V46.9672ZM61.0987 49.2622H68.4697V49.8832H61.0987V49.2622ZM64.7707 43.2952C66.4897 43.2952 67.7227 44.1142 67.7227 45.3922C67.7227 46.6612 66.4897 47.4802 64.7707 47.4802C63.0427 47.4802 61.8097 46.6612 61.8097 45.3922C61.8097 44.1142 63.0427 43.2952 64.7707 43.2952ZM64.7707 43.8892C63.4657 43.8892 62.5297 44.4832 62.5297 45.3922C62.5297 46.2922 63.4657 46.8862 64.7707 46.8862C66.0757 46.8862 67.0027 46.2922 67.0027 45.3922C67.0027 44.4832 66.0757 43.8892 64.7707 43.8892Z" fill="white"/>
<path fill-rule="evenodd" clip-rule="evenodd" d="M121.551 24.6417V22.9081H118.43C118.099 22.9075 117.77 22.9643 117.466 23.0749C117.161 23.1856 116.887 23.3478 116.66 23.5514C116.432 23.7551 116.257 23.9959 116.144 24.2591C116.032 24.5222 115.984 24.802 116.005 25.0812C116.025 25.3605 116.114 25.6331 116.264 25.8824C116.414 26.1318 116.624 26.3524 116.879 26.5307C117.135 26.709 117.431 26.8412 117.75 26.9191C118.068 26.997 118.402 27.019 118.731 26.9836L119.147 26.9396C119.81 26.8693 120.421 26.5972 120.863 26.1743C121.306 25.7514 121.551 25.206 121.551 24.6417Z" fill="white"/>
<path d="M121.551 19.1299V18.7451C121.551 17.7256 121.551 17.2162 121.905 16.8642C122.259 16.5121 122.855 16.4278 124.046 16.2596L125.806 16.0128C125.907 15.9989 125.958 15.9914 125.985 16.0166C126.012 16.0418 126 16.0833 125.975 16.1677L125.307 18.4227C125.296 18.4605 125.29 18.4794 125.274 18.492C125.259 18.5046 125.237 18.5083 125.191 18.5159L121.551 19.1299ZM121.551 19.1299V22.9081M121.551 22.9081V24.6417C121.551 25.2062 121.307 25.7512 120.864 26.1744C120.421 26.5976 119.811 26.8699 119.147 26.9402L118.731 26.9843C118.402 27.0188 118.069 26.9963 117.751 26.918C117.433 26.8397 117.138 26.7074 116.883 26.5291C116.628 26.3508 116.419 26.1303 116.269 25.8813C116.119 25.6323 116.031 25.36 116.011 25.0812C115.99 24.8024 116.037 24.523 116.15 24.2602C116.262 23.9974 116.437 23.7568 116.663 23.5532C116.89 23.3496 117.164 23.1873 117.468 23.0764C117.772 22.9655 118.099 22.9082 118.43 22.9081H121.551Z" stroke="white" stroke-width="2"/>
</svg>
