<svg width="136" height="94" viewBox="0 0 136 94" fill="none" xmlns="http://www.w3.org/2000/svg">
<rect width="136" height="94" rx="13" fill="#2DA83B"/>
<mask id="mask0_271_2880" style="mask-type:alpha" maskUnits="userSpaceOnUse" x="0" y="44" width="136" height="50">
<rect y="44.4595" width="136" height="49.5405" rx="12" fill="#C4C4C4"/>
</mask>
<g mask="url(#mask0_271_2880)">
<path opacity="0.3" d="M-24.7273 78.1216C-18.1914 68.6119 -2.13822 62.7765 23.3223 60.6554C52.0887 58.2589 65.4503 76.5805 92.3901 72.0878C112.189 68.7861 107.521 60.4034 122.793 54.6216C135.616 49.7675 144.347 47.4285 160.727 44.4595" stroke="white"/>
<path opacity="0.3" d="M-24.7273 85.7432C-18.1914 76.2335 -2.13822 70.3981 23.3223 68.277C52.0887 65.8805 65.4503 84.2021 92.3901 79.7095C112.189 76.4077 107.521 68.025 122.793 62.2432C135.616 57.3892 144.347 55.0501 160.727 52.0811" stroke="white"/>
<path opacity="0.3" d="M-24.7273 83.2027C-18.1914 73.693 -2.13822 67.8576 23.3223 65.7365C52.0887 63.34 65.4503 81.6616 92.3901 77.1689C112.189 73.8671 107.521 65.4845 122.793 59.7027C135.616 54.8486 144.347 52.5096 160.727 49.5405" stroke="white"/>
<path opacity="0.3" d="M-24.7273 80.6622C-18.1914 71.1525 -2.13822 65.3171 23.3223 63.1959C52.0887 60.7994 65.4503 79.1211 92.3901 74.6284C112.189 71.3266 107.521 62.9439 122.793 57.1622C135.616 52.3081 144.347 49.9691 160.727 47" stroke="white"/>
<path d="M-4.94556 56.527C0.47818 66.0367 13.7998 71.8721 34.928 73.9932C58.7996 76.3898 69.8875 58.0681 92.2433 62.5608C108.673 65.8626 104.799 74.2453 117.473 80.027C128.114 84.8811 135.359 87.2201 148.952 90.1892" stroke="white" stroke-width="1.2"/>
<path d="M-4.94556 48.9054C0.47818 58.4151 13.7998 64.2505 34.928 66.3716C58.7996 68.7682 69.8875 50.4465 92.2433 54.9392C108.673 58.241 104.799 66.6236 117.473 72.4054C128.114 77.2595 135.359 79.5985 148.952 82.5676" stroke="white" stroke-width="1.2"/>
<path d="M-4.94556 51.4459C0.47818 60.9556 13.7998 66.791 34.928 68.9122C58.7996 71.3087 69.8875 52.987 92.2433 57.4797C108.673 60.7815 104.799 69.1642 117.473 74.9459C128.114 79.8 135.359 82.1391 148.952 85.1081" stroke="white" stroke-width="1.2"/>
<path d="M-4.94556 53.9865C0.47818 63.4962 13.7998 69.3316 34.928 71.4527C58.7996 73.8492 69.8875 55.5276 92.2433 60.0203C108.673 63.3221 104.799 71.7047 117.473 77.4865C128.114 82.3406 135.359 84.6796 148.952 87.6487" stroke="white" stroke-width="1.2"/>
</g>
<path d="M15.551 25.7147H11.477L10.777 27.7027H9.11101L12.597 17.9587H14.445L17.931 27.7027H16.251L15.551 25.7147ZM15.103 24.4127L13.521 19.8907L11.925 24.4127H15.103ZM21.0427 17.9727V27.7027H19.4467V17.9727H21.0427ZM27.8249 21.8787H36.5889V22.8307H27.8249V21.8787ZM26.4249 26.2047H37.8909V27.1707H26.4249V26.2047ZM31.5629 22.4667H32.7109V26.5127H31.5629V22.4667ZM27.8249 17.2027H28.9869V22.2987H27.8249V17.2027ZM39.7098 24.8047H40.5498C42.0898 24.8047 43.4898 24.7487 45.1978 24.4547L45.2958 25.4207C43.5458 25.7287 42.1178 25.7707 40.5498 25.7707H39.7098V24.8047ZM39.6818 17.5107H44.4278V21.9627H40.8438V25.1687H39.7098V21.0107H43.2938V18.4627H39.6818V17.5107ZM48.9218 16.1387H50.0418V28.7947H48.9218V16.1387ZM46.7798 21.1367H49.2158V22.0887H46.7798V21.1367ZM46.0518 16.4187H47.1438V28.1507H46.0518V16.4187ZM58.9414 17.9447H59.8654V20.0027C59.8654 22.6347 58.2554 25.3507 56.2814 26.3587L55.6094 25.4347C57.4154 24.5527 58.9414 22.1447 58.9414 20.0027V17.9447ZM59.1514 17.9447H60.0754V20.0027C60.0754 22.0047 61.5034 24.2587 63.3374 25.1267L62.6794 26.0507C60.6774 25.0567 59.1514 22.5087 59.1514 20.0027V17.9447ZM56.0574 17.4267H62.8754V18.4067H56.0574V17.4267ZM64.3734 16.1387H65.5494V28.7947H64.3734V16.1387ZM65.2694 21.2487H67.6214V22.2287H65.2694V21.2487ZM68.6983 22.3687H80.1363V23.3207H68.6983V22.3687ZM73.8363 20.3387H74.9843V22.7607H73.8363V20.3387ZM70.1403 19.9747H78.8063V20.9267H70.1403V19.9747ZM70.1403 16.7127H78.7083V17.6507H71.2883V20.5347H70.1403V16.7127ZM74.3963 24.2307C77.0983 24.2307 78.7363 25.0567 78.7363 26.4987C78.7363 27.9687 77.0983 28.7807 74.3963 28.7807C71.6943 28.7807 70.0563 27.9687 70.0563 26.4987C70.0563 25.0567 71.6943 24.2307 74.3963 24.2307ZM74.3963 25.1267C72.4223 25.1267 71.2323 25.6307 71.2323 26.4987C71.2323 27.3807 72.4223 27.8707 74.3963 27.8707C76.3843 27.8707 77.5603 27.3807 77.5603 26.4987C77.5603 25.6307 76.3843 25.1267 74.3963 25.1267ZM94.8879 16.1387H95.9939V28.7947H94.8879V16.1387ZM92.8859 21.2347H95.3219V22.2147H92.8859V21.2347ZM92.1299 16.4047H93.2219V28.1647H92.1299V16.4047ZM87.8179 18.0987H88.7279V19.5547C88.7279 22.5927 87.7339 25.0287 85.7879 26.1907L85.0739 25.2947C86.8939 24.2867 87.8179 22.1307 87.8179 19.5547V18.0987ZM88.0279 18.0987H88.9379V19.5547C88.9379 21.8787 89.8759 23.9367 91.6539 24.8467L90.9679 25.7427C89.0359 24.6787 88.0279 22.3407 88.0279 19.5547V18.0987ZM85.3679 17.6227H91.2479V18.5887H85.3679V17.6227ZM100.739 16.9227H101.663V18.6167C101.663 20.5067 100.571 22.4947 98.7088 23.3207L98.0788 22.4107C99.7448 21.6827 100.739 20.0447 100.739 18.6167V16.9227ZM100.921 16.9227H101.845V18.6167C101.845 20.0167 102.797 21.4447 104.421 22.0747L103.791 22.9567C101.971 22.2287 100.921 20.4787 100.921 18.6167V16.9227ZM107.641 16.1527H108.747V23.9507H107.641V16.1527ZM105.625 19.5267H108.019V20.4787H105.625V19.5267ZM104.925 16.3907H106.031V23.5447H104.925V16.3907ZM104.589 24.2307C107.193 24.2307 108.817 25.0707 108.817 26.5127C108.817 27.9407 107.193 28.7667 104.589 28.7667C101.971 28.7667 100.375 27.9407 100.375 26.5127C100.375 25.0707 101.971 24.2307 104.589 24.2307ZM104.589 25.1407C102.685 25.1407 101.509 25.6447 101.509 26.5127C101.509 27.3667 102.685 27.8707 104.589 27.8707C106.493 27.8707 107.655 27.3667 107.655 26.5127C107.655 25.6447 106.493 25.1407 104.589 25.1407Z" fill="white"/>
<path fill-rule="evenodd" clip-rule="evenodd" d="M121.551 24.6417V22.9081H118.43C118.099 22.9075 117.77 22.9643 117.466 23.0749C117.161 23.1856 116.887 23.3477 116.66 23.5514C116.432 23.7551 116.257 23.9959 116.144 24.259C116.032 24.5222 115.984 24.802 116.005 25.0812C116.025 25.3604 116.114 25.6331 116.264 25.8824C116.414 26.1317 116.624 26.3524 116.879 26.5307C117.135 26.709 117.431 26.8412 117.75 26.9191C118.068 26.997 118.402 27.019 118.731 26.9836L119.147 26.9396C119.81 26.8693 120.421 26.5972 120.863 26.1743C121.306 25.7514 121.551 25.206 121.551 24.6417Z" fill="white"/>
<path d="M121.551 19.1299V18.7451C121.551 17.7256 121.551 17.2162 121.905 16.8642C122.259 16.5121 122.855 16.4278 124.046 16.2596L125.806 16.0128C125.907 15.9989 125.958 15.9914 125.985 16.0166C126.012 16.0418 126 16.0833 125.975 16.1677L125.307 18.4227C125.296 18.4605 125.29 18.4794 125.274 18.492C125.259 18.5046 125.237 18.5083 125.191 18.5159L121.551 19.1299ZM121.551 19.1299V22.9081M121.551 22.9081V24.6417C121.551 25.2062 121.307 25.7512 120.864 26.1744C120.421 26.5976 119.811 26.8699 119.147 26.9402L118.731 26.9843C118.402 27.0188 118.069 26.9963 117.751 26.918C117.433 26.8397 117.138 26.7074 116.883 26.5291C116.628 26.3508 116.419 26.1303 116.269 25.8813C116.119 25.6323 116.031 25.36 116.011 25.0812C115.99 24.8024 116.037 24.523 116.15 24.2602C116.262 23.9974 116.437 23.7568 116.663 23.5532C116.89 23.3496 117.164 23.1873 117.468 23.0764C117.772 22.9655 118.099 22.9082 118.43 22.9081H121.551Z" stroke="white" stroke-width="2"/>
<path d="M11.421 36.989H12.042V37.817C12.042 39.383 11.16 40.679 9.801 41.21L9.405 40.607C10.629 40.157 11.421 39.059 11.421 37.817V36.989ZM11.556 36.989H12.168V37.871C12.168 38.969 12.978 39.986 14.148 40.391L13.752 40.976C12.447 40.49 11.556 39.284 11.556 37.871V36.989ZM15.012 36.566H15.759V41.498H15.012V36.566ZM15.552 38.663H16.965V39.293H15.552V38.663ZM13.167 41.723C14.832 41.723 15.84 42.272 15.84 43.208C15.84 44.144 14.832 44.684 13.167 44.684C11.502 44.684 10.494 44.144 10.494 43.208C10.494 42.272 11.502 41.723 13.167 41.723ZM13.167 42.317C11.961 42.317 11.223 42.641 11.223 43.208C11.223 43.775 11.961 44.099 13.167 44.099C14.373 44.099 15.111 43.775 15.111 43.208C15.111 42.641 14.373 42.317 13.167 42.317ZM23.2823 36.575H24.0293V42.083H23.2823V36.575ZM23.7143 39.014H25.2173V39.644H23.7143V39.014ZM21.4193 42.191C23.1113 42.191 24.0923 42.632 24.0923 43.442C24.0923 44.252 23.1113 44.693 21.4193 44.693C19.7363 44.693 18.7553 44.252 18.7553 43.442C18.7553 42.632 19.7363 42.191 21.4193 42.191ZM21.4193 42.749C20.1863 42.749 19.5023 42.992 19.5023 43.442C19.5023 43.892 20.1863 44.135 21.4193 44.135C22.6433 44.135 23.3363 43.892 23.3363 43.442C23.3363 42.992 22.6433 42.749 21.4193 42.749ZM19.8533 40.265H20.6003V41.381H19.8533V40.265ZM17.7743 41.723L17.6753 41.129C19.1333 41.129 21.1313 41.111 22.7963 40.868L22.8593 41.39C21.1313 41.705 19.1963 41.723 17.7743 41.723ZM17.8823 37.268H22.5533V37.826H17.8823V37.268ZM20.2223 38.168C21.3743 38.168 22.1123 38.6 22.1123 39.32C22.1123 40.04 21.3743 40.472 20.2223 40.472C19.0703 40.472 18.3233 40.04 18.3233 39.32C18.3233 38.6 19.0703 38.168 20.2223 38.168ZM20.2223 38.672C19.4933 38.672 19.0253 38.924 19.0253 39.32C19.0253 39.725 19.4933 39.968 20.2223 39.968C20.9513 39.968 21.4103 39.725 21.4103 39.32C21.4103 38.924 20.9513 38.672 20.2223 38.672ZM19.8533 36.503H20.6003V37.475H19.8533V36.503ZM29.3026 39.725H30.8416V40.346H29.3026V39.725ZM32.2006 36.566H32.9206V44.702H32.2006V36.566ZM30.5896 36.737H31.3006V44.297H30.5896V36.737ZM27.8356 37.241C28.8886 37.241 29.5726 38.33 29.5726 40.076C29.5726 41.822 28.8886 42.911 27.8356 42.911C26.7826 42.911 26.1076 41.822 26.1076 40.076C26.1076 38.33 26.7826 37.241 27.8356 37.241ZM27.8356 37.934C27.1966 37.934 26.7916 38.762 26.7916 40.076C26.7916 41.39 27.1966 42.218 27.8356 42.218C28.4836 42.218 28.8886 41.39 28.8886 40.076C28.8886 38.762 28.4836 37.934 27.8356 37.934ZM36.9588 37.115H40.6938V40.607H36.9588V37.115ZM39.9648 37.718H37.6878V40.004H39.9648V37.718ZM42.1878 36.566H42.9348V41.201H42.1878V36.566ZM42.7278 38.519H44.1408V39.14H42.7278V38.519ZM40.0188 41.966H40.6578V42.182C40.6578 43.46 39.3168 44.405 37.7148 44.675L37.4268 44.099C38.8308 43.883 40.0188 43.091 40.0188 42.182V41.966ZM40.1628 41.966H40.8018V42.182C40.8018 43.073 42.0078 43.883 43.3848 44.108L43.1058 44.684C41.5128 44.414 40.1628 43.433 40.1628 42.182V41.966ZM37.7418 41.687H43.0788V42.281H37.7418V41.687ZM51.0971 36.566H51.8171V44.702H51.0971V36.566ZM47.5691 39.887H49.6211V40.49H47.5691V39.887ZM49.4051 36.773H50.1071V44.288H49.4051V36.773ZM47.6681 37.592H48.3881C48.3881 39.725 47.5331 41.642 45.3371 42.947L44.8961 42.416C46.8131 41.264 47.6681 39.644 47.6681 37.727V37.592ZM45.2561 37.592H47.9471V38.204H45.2561V37.592ZM58.7602 40.256H64.3942V40.868H58.7602V40.256ZM57.8602 43.037H65.2312V43.658H57.8602V43.037ZM61.1632 40.634H61.9012V43.235H61.1632V40.634ZM58.7602 37.25H59.5072V40.526H58.7602V37.25ZM66.4005 42.137H66.9405C67.9305 42.137 68.8305 42.101 69.9285 41.912L69.9915 42.533C68.8665 42.731 67.9485 42.758 66.9405 42.758H66.4005V42.137ZM66.3825 37.448H69.4335V40.31H67.1295V42.371H66.4005V39.698H68.7045V38.06H66.3825V37.448ZM72.3225 36.566H73.0425V44.702H72.3225V36.566ZM70.9455 39.779H72.5115V40.391H70.9455V39.779ZM70.4775 36.746H71.1795V44.288H70.4775V36.746ZM74.4098 40.346H81.7898V40.913H74.4098V40.346ZM75.2828 41.57H80.8628V43.307H76.0478V44.261H75.3098V42.794H80.1338V42.101H75.2828V41.57ZM75.3098 44.063H81.1238V44.603H75.3098V44.063ZM75.3458 36.8H80.8358V38.492H76.1018V39.374H75.3638V37.988H80.1068V37.331H75.3458V36.8ZM75.3638 39.194H80.9888V39.734H75.3638V39.194ZM91.2549 36.566H91.9659V44.702H91.2549V36.566ZM89.9679 39.842H91.5339V40.472H89.9679V39.842ZM89.4819 36.737H90.1839V44.297H89.4819V36.737ZM86.7099 37.826H87.2949V38.762C87.2949 40.715 86.6559 42.281 85.4049 43.028L84.9459 42.452C86.1159 41.804 86.7099 40.418 86.7099 38.762V37.826ZM86.8449 37.826H87.4299V38.762C87.4299 40.256 88.0329 41.579 89.1759 42.164L88.7349 42.74C87.4929 42.056 86.8449 40.553 86.8449 38.762V37.826ZM85.1349 37.52H88.9149V38.141H85.1349V37.52ZM95.0162 37.07H95.6102V38.159C95.6102 39.374 94.9082 40.652 93.7112 41.183L93.3062 40.598C94.3772 40.13 95.0162 39.077 95.0162 38.159V37.07ZM95.1332 37.07H95.7272V38.159C95.7272 39.059 96.3392 39.977 97.3832 40.382L96.9782 40.949C95.8082 40.481 95.1332 39.356 95.1332 38.159V37.07ZM99.4532 36.575H100.164V41.588H99.4532V36.575ZM98.1572 38.744H99.6962V39.356H98.1572V38.744ZM97.7072 36.728H98.4182V41.327H97.7072V36.728ZM97.4912 41.768C99.1652 41.768 100.209 42.308 100.209 43.235C100.209 44.153 99.1652 44.684 97.4912 44.684C95.8082 44.684 94.7822 44.153 94.7822 43.235C94.7822 42.308 95.8082 41.768 97.4912 41.768ZM97.4912 42.353C96.2672 42.353 95.5112 42.677 95.5112 43.235C95.5112 43.784 96.2672 44.108 97.4912 44.108C98.7152 44.108 99.4622 43.784 99.4622 43.235C99.4622 42.677 98.7152 42.353 97.4912 42.353ZM101.577 37.952H105.609V38.564H101.577V37.952ZM103.593 39.104C104.61 39.104 105.348 39.869 105.348 40.967C105.348 42.056 104.61 42.821 103.593 42.821C102.585 42.821 101.847 42.056 101.847 40.967C101.847 39.869 102.585 39.104 103.593 39.104ZM103.593 39.743C102.972 39.743 102.522 40.247 102.522 40.967C102.522 41.687 102.972 42.191 103.593 42.191C104.223 42.191 104.682 41.687 104.682 40.967C104.682 40.247 104.223 39.743 103.593 39.743ZM107.76 36.566H108.48V44.702H107.76V36.566ZM106.464 39.986H108.003V40.607H106.464V39.986ZM106.023 36.746H106.725V44.306H106.023V36.746ZM103.233 36.8H103.971V38.33H103.233V36.8ZM111.674 40.751H112.412V43.19H111.674V40.751ZM114.68 40.751H115.427V43.19H114.68V40.751ZM109.874 43.046H117.245V43.667H109.874V43.046ZM113.546 37.079C115.265 37.079 116.498 37.898 116.498 39.176C116.498 40.445 115.265 41.264 113.546 41.264C111.818 41.264 110.585 40.445 110.585 39.176C110.585 37.898 111.818 37.079 113.546 37.079ZM113.546 37.673C112.241 37.673 111.305 38.267 111.305 39.176C111.305 40.076 112.241 40.67 113.546 40.67C114.851 40.67 115.778 40.076 115.778 39.176C115.778 38.267 114.851 37.673 113.546 37.673Z" fill="white"/>
</svg>
