<svg width="386" height="823" viewBox="0 0 386 823" fill="none" xmlns="http://www.w3.org/2000/svg">
<g clip-path="url(#clip0_97_2782)">
<rect width="386" height="823" rx="40" fill="#FBFFFD"/>
<path d="M176.358 44.72C176.358 36.8451 183.365 30.4612 192.007 30.4612C200.65 30.4612 207.656 36.8451 207.656 44.72C207.656 52.5949 200.65 36.3317 192.007 36.3317C183.365 36.3317 176.358 52.5949 176.358 44.72Z" fill="#FFF0A6"/>
<path d="M191.121 49.7507C191.121 54.0177 191.121 58.2848 191.121 62.5518C191.121 65.029 190.242 73.4173 191.766 74.6964C192.323 75.1633 192.948 78.9265 193.257 79.9481C193.951 82.2403 193.356 86.8615 193.356 89.2844C193.356 91.6428 193.356 94.0012 193.356 96.3597C193.356 98.4326 194.25 100.055 194.25 102.268" stroke="#B2A9A8" stroke-width="3" stroke-linecap="round"/>
<path d="M147.771 115.397C147.771 109.827 148.687 102.604 147.548 97.2271C146.913 94.2318 146.877 91.0747 146.877 87.9793C146.877 84.0773 145.983 80.6181 145.983 76.7126C145.983 71.0593 145.054 63.8531 146.629 58.5427C147.568 55.3753 148.666 53.2465 148.666 49.7507" stroke="#B2A9A8" stroke-width="3" stroke-linecap="round"/>
<path d="M234.239 51.1328C234.326 56.701 233.524 63.9535 234.747 69.2903C235.429 72.2634 235.515 75.4184 235.563 78.513C235.624 82.4139 236.573 85.842 236.634 89.7464C236.723 95.3982 237.765 102.571 236.274 107.933C235.384 111.132 234.321 113.297 234.376 116.792" stroke="#B2A9A8" stroke-width="3" stroke-linecap="round"/>
<path d="M246.311 50.2866C246.311 52.0341 223.971 50.2866 193.104 50.2866C162.238 50.2866 134.533 52.0341 134.533 50.2866C134.533 48.5392 162.238 41.2163 193.104 41.2163C223.971 41.2163 246.311 48.5392 246.311 50.2866Z" fill="#333333"/>
<path d="M174.059 110.548C170.675 103.238 175.726 98.2938 178.54 95.9643C180.83 94.0695 184.684 95.8964 187.162 101.171C188.998 95.086 192.864 91.3733 196.862 91.7967C201.476 92.2879 205.417 98.1964 206.132 106.029C206.274 105.857 209.387 102.231 212.167 104.293C215.119 106.482 215.507 113.464 214.539 117.833C214.345 118.709 213.814 121.002 212.384 122.693C210.226 125.247 207.327 129.032 204.476 126.51C204.053 127.49 200.925 130.028 195.569 131.024C190.449 131.977 186.893 127.314 186.3 126.51C181.892 132.264 172.258 126.51 170.787 122.693C169.317 118.876 171.409 114.838 174.059 110.548Z" fill="#D2CBEF"/>
<ellipse cx="192.86" cy="113.99" rx="9.14544" ry="9.84696" fill="#D9D9D9" fill-opacity="0.1"/>
<path d="M195.215 117.797C195.065 118.328 194.802 118.783 194.462 119.105C194.122 119.426 193.719 119.598 193.307 119.598C192.895 119.598 192.493 119.426 192.153 119.105C191.812 118.783 191.199 117.616 191.049 117.085C190.948 116.753 190.948 117.751 191.049 118.081C191.236 118.697 191.55 119.223 191.951 119.593C192.353 119.963 192.825 120.16 193.308 120.16C193.79 120.16 194.262 119.963 194.664 119.593C195.066 119.223 195.38 118.697 195.566 118.081C195.667 117.751 195.317 117.462 195.215 117.797Z" fill="#333333"/>
<ellipse cx="198.144" cy="110.615" rx="1.42262" ry="1.96939" fill="#333333"/>
<ellipse cx="197.535" cy="110.332" rx="0.406464" ry="0.562683" fill="#C8B8AE"/>
<ellipse cx="187.576" cy="110.615" rx="1.42262" ry="1.96939" fill="#333333"/>
<ellipse cx="188.186" cy="110.332" rx="0.406464" ry="0.562683" fill="#C8B8AE"/>
<path d="M198.789 114.635C199.091 115.289 199.11 116.565 198.353 117.235C197.597 117.905 196.352 117.715 196.05 117.061C195.747 116.406 196.115 115.333 196.872 114.663C197.628 113.993 198.487 113.981 198.789 114.635Z" fill="#FF856B"/>
<path d="M186.844 115.657C187.012 114.915 187.705 114.075 188.563 114.445C189.42 114.816 190.116 116.257 189.948 116.999C189.781 117.74 188.951 118.041 188.094 117.67C187.236 117.3 186.677 116.398 186.844 115.657Z" fill="#FF856B"/>
<path d="M193.267 112.583V112.637" stroke="#A77136" stroke-linecap="round"/>
<path d="M192.555 115.256H192.656" stroke="#A77136" stroke-linecap="round"/>
<path d="M195.706 114.89V114.834" stroke="#A77136" stroke-linecap="round"/>
<path d="M194.283 115.397H194.324" stroke="#A77136" stroke-linecap="round"/>
<path d="M190.218 114.834H190.259" stroke="#A77136" stroke-linecap="round"/>
<path d="M194.689 112.583H194.731" stroke="#A77136" stroke-linecap="round"/>
<path d="M191.844 112.583H191.963" stroke="#A77136" stroke-linecap="round"/>
<path d="M191.844 114.272H191.885" stroke="#A77136" stroke-opacity="0.6" stroke-linecap="round"/>
<path d="M191.031 113.709H191.072" stroke="#A77136" stroke-linecap="round"/>
<path d="M190.218 113.709H190.222" stroke="#A77136" stroke-opacity="0.3" stroke-linecap="round"/>
<path d="M192.657 112.021H192.661" stroke="#A77136" stroke-opacity="0.3" stroke-linecap="round"/>
<path d="M193.876 112.021H193.88" stroke="#A77136" stroke-opacity="0.3" stroke-linecap="round"/>
<path d="M190.625 112.583H190.666" stroke="#A77136" stroke-linecap="round"/>
<path d="M191.031 115.397H191.033" stroke="#A77136" stroke-opacity="0.6" stroke-linecap="round"/>
<path d="M195.909 113.709H195.914" stroke="#A77136" stroke-linecap="round"/>
<path d="M195.096 113.709H195.137" stroke="#A77136" stroke-linecap="round"/>
<path d="M193.47 114.834H193.55" stroke="#A77136" stroke-opacity="0.7" stroke-linecap="round"/>
<path d="M194.283 113.709H194.363" stroke="#A77136" stroke-opacity="0.5" stroke-linecap="round"/>
<path d="M192.657 113.709H192.737" stroke="#A77136" stroke-linecap="round"/>
<path d="M164.937 130.42L157.74 138.795L159.896 151.263C160.01 151.915 159.978 152.597 159.802 153.224C159.627 153.852 159.317 154.396 158.911 154.79C158.505 155.183 158.021 155.409 157.52 155.438C157.018 155.467 156.522 155.298 156.092 154.952L147.942 141.897L139.797 154.952C139.368 155.298 138.871 155.467 138.369 155.438C137.868 155.409 137.384 155.183 136.978 154.79C136.572 154.396 136.262 153.852 136.087 153.224C135.912 152.597 135.879 151.915 135.993 151.263L138.146 138.808L130.947 130.42C130.567 129.982 130.291 129.404 130.156 128.759C130.021 128.113 130.031 127.429 130.187 126.791C130.342 126.153 130.635 125.591 131.029 125.175C131.423 124.758 131.9 124.506 132.401 124.45L141.89 123.354L145.593 111.575C145.787 110.957 146.113 110.429 146.531 110.058C146.949 109.687 147.44 109.489 147.942 109.489C148.444 109.489 148.936 109.687 149.354 110.058C149.771 110.429 150.098 110.957 150.291 111.575L154.006 123.354L163.491 124.45C163.992 124.506 164.47 124.758 164.864 125.175C165.258 125.591 165.551 126.153 165.706 126.791C165.861 127.429 165.872 128.113 165.736 128.759C165.601 129.404 165.326 129.982 164.945 130.42H164.937Z" fill="#FFF0A6"/>
<path d="M139.496 119.662C139.496 119.662 139.537 119.617 139.604 119.586C139.671 119.553 139.764 119.54 139.872 119.573C139.979 119.609 140.104 119.693 140.232 119.84C140.297 119.916 140.362 119.998 140.43 120.079C140.496 120.169 140.564 120.248 140.632 120.348C140.699 120.443 140.767 120.539 140.833 120.634C140.899 120.726 140.962 120.838 141.025 120.936C141.089 121.034 141.147 121.132 141.205 121.236C141.261 121.34 141.315 121.425 141.363 121.526C141.461 121.713 141.542 121.884 141.598 122.007C141.653 122.138 141.685 122.213 141.685 122.213C141.973 122.89 141.912 123.872 141.55 124.405C141.544 124.414 141.536 124.428 141.529 124.436C141.529 124.436 141.488 124.493 141.417 124.592C141.346 124.683 141.244 124.808 141.124 124.939C141.064 125.011 141 125.068 140.931 125.14C140.862 125.212 140.791 125.281 140.717 125.344C140.643 125.408 140.567 125.485 140.49 125.541C140.413 125.599 140.335 125.66 140.256 125.719C140.178 125.783 140.101 125.825 140.024 125.878C139.948 125.922 139.873 125.967 139.802 126.011C139.658 126.089 139.527 126.112 139.417 126.093C139.308 126.07 139.219 126.012 139.16 125.946C139.1 125.884 139.067 125.82 139.067 125.82C138.246 124.244 138.263 121.744 139.103 120.222C139.221 120.009 139.359 119.814 139.496 119.662ZM145.419 125.509C145.419 125.509 145.388 125.573 145.33 125.644C145.273 125.715 145.186 125.782 145.078 125.815C144.97 125.845 144.838 125.835 144.691 125.771C144.617 125.733 144.542 125.696 144.465 125.659C144.387 125.613 144.308 125.576 144.228 125.522C144.148 125.472 144.068 125.418 143.99 125.367C143.911 125.319 143.832 125.249 143.757 125.193C143.681 125.136 143.608 125.077 143.537 125.009C143.467 124.944 143.4 124.893 143.337 124.828C143.214 124.708 143.108 124.593 143.035 124.509C142.96 124.417 142.918 124.364 142.918 124.364C142.532 123.888 142.425 122.921 142.679 122.201C142.683 122.19 142.689 122.173 142.695 122.159C142.695 122.159 142.724 122.081 142.775 121.945C142.827 121.817 142.902 121.638 142.994 121.442C143.04 121.339 143.091 121.247 143.144 121.137C143.196 121.028 143.253 120.924 143.313 120.821C143.373 120.717 143.433 120.599 143.496 120.5C143.559 120.399 143.624 120.297 143.688 120.196C143.752 120.089 143.817 120.004 143.882 119.908C143.946 119.82 144.009 119.735 144.071 119.65C144.195 119.491 144.315 119.395 144.423 119.349C144.531 119.306 144.623 119.312 144.691 119.336C144.759 119.36 144.801 119.402 144.801 119.402C145.84 120.418 146.244 122.808 145.702 124.741C145.623 125.018 145.523 125.283 145.419 125.509Z" fill="#D2CBEF"/>
<path d="M142.292 124.792C142.887 124.792 143.37 123.944 143.37 122.897C143.37 121.85 142.887 121.001 142.292 121.001C141.697 121.001 141.215 121.85 141.215 122.897C141.215 123.944 141.697 124.792 142.292 124.792Z" fill="#B3A5ED"/>
<ellipse cx="148.144" cy="132.753" rx="8.94221" ry="10.0521" fill="#D9D9D9" fill-opacity="0.1"/>
<path d="M150.447 136.638C150.3 137.18 150.043 137.645 149.711 137.974C149.378 138.302 148.985 138.477 148.582 138.477C148.179 138.477 147.785 138.302 147.453 137.974C147.12 137.645 146.52 136.454 146.373 135.912C146.274 135.573 146.275 136.591 146.373 136.928C146.556 137.557 146.863 138.094 147.256 138.472C147.649 138.849 148.11 139.051 148.582 139.051C149.054 139.051 149.515 138.849 149.908 138.472C150.301 138.094 150.608 137.557 150.79 136.928C150.889 136.591 150.546 136.296 150.447 136.638Z" fill="#333333"/>
<ellipse cx="153.311" cy="129.306" rx="1.39101" ry="2.01042" fill="#333333"/>
<ellipse cx="152.715" cy="129.018" rx="0.397432" ry="0.574406" fill="#C8B8AE"/>
<ellipse cx="142.978" cy="129.306" rx="1.39101" ry="2.01042" fill="#333333"/>
<ellipse cx="143.574" cy="129.018" rx="0.397432" ry="0.574406" fill="#C8B8AE"/>
<path d="M153.941 133.41C154.237 134.078 154.255 135.381 153.515 136.064C152.776 136.748 151.559 136.554 151.263 135.886C150.967 135.218 151.327 134.122 152.067 133.438C152.806 132.755 153.646 132.742 153.941 133.41Z" fill="#FF856B"/>
<path d="M142.262 134.454C142.426 133.697 143.104 132.839 143.942 133.217C144.78 133.595 145.461 135.067 145.297 135.824C145.134 136.581 144.322 136.888 143.484 136.51C142.646 136.132 142.099 135.211 142.262 134.454Z" fill="#FF856B"/>
<path d="M148.542 131.317V131.373" stroke="#A77136" stroke-linecap="round"/>
<path d="M147.846 134.045H147.945" stroke="#A77136" stroke-linecap="round"/>
<path d="M150.927 133.67V133.614" stroke="#A77136" stroke-linecap="round"/>
<path d="M149.536 134.188H149.576" stroke="#A77136" stroke-linecap="round"/>
<path d="M145.561 133.614H145.602" stroke="#A77136" stroke-linecap="round"/>
<path d="M149.933 131.317H149.973" stroke="#A77136" stroke-linecap="round"/>
<path d="M147.151 131.317H147.268" stroke="#A77136" stroke-linecap="round"/>
<path d="M147.151 133.04H147.191" stroke="#A77136" stroke-opacity="0.6" stroke-linecap="round"/>
<path d="M146.356 132.465H146.396" stroke="#A77136" stroke-linecap="round"/>
<path d="M145.561 132.465H145.565" stroke="#A77136" stroke-opacity="0.3" stroke-linecap="round"/>
<path d="M147.946 130.741H147.949" stroke="#A77136" stroke-opacity="0.3" stroke-linecap="round"/>
<path d="M149.138 130.741H149.142" stroke="#A77136" stroke-opacity="0.3" stroke-linecap="round"/>
<path d="M145.958 131.317H145.999" stroke="#A77136" stroke-linecap="round"/>
<path d="M146.356 134.188H146.357" stroke="#A77136" stroke-opacity="0.6" stroke-linecap="round"/>
<path d="M151.125 132.465H151.13" stroke="#A77136" stroke-linecap="round"/>
<path d="M150.33 132.465H150.371" stroke="#A77136" stroke-linecap="round"/>
<path d="M148.741 133.614H148.819" stroke="#A77136" stroke-opacity="0.7" stroke-linecap="round"/>
<path d="M149.536 132.465H149.614" stroke="#A77136" stroke-opacity="0.5" stroke-linecap="round"/>
<path d="M147.946 132.465H148.024" stroke="#A77136" stroke-linecap="round"/>
<path d="M252.124 130.42L244.927 138.795L247.083 151.263C247.197 151.915 247.164 152.597 246.989 153.224C246.814 153.852 246.504 154.396 246.098 154.79C245.692 155.183 245.208 155.409 244.707 155.438C244.205 155.467 243.708 155.298 243.278 154.952L235.129 141.897L226.984 154.952C226.554 155.298 226.058 155.467 225.556 155.438C225.054 155.409 224.571 155.183 224.165 154.79C223.759 154.396 223.449 153.852 223.274 153.224C223.098 152.597 223.066 151.915 223.18 151.263L225.333 138.808L218.134 130.42C217.753 129.982 217.478 129.404 217.343 128.759C217.207 128.113 217.218 127.429 217.373 126.791C217.529 126.153 217.822 125.591 218.216 125.175C218.61 124.758 219.087 124.506 219.588 124.45L229.076 123.354L232.78 111.575C232.973 110.957 233.3 110.429 233.718 110.058C234.136 109.687 234.627 109.489 235.129 109.489C235.631 109.489 236.122 109.687 236.54 110.058C236.958 110.429 237.285 110.957 237.478 111.575L241.193 123.354L250.678 124.45C251.179 124.506 251.656 124.758 252.05 125.175C252.444 125.591 252.737 126.153 252.893 126.791C253.048 127.429 253.058 128.113 252.923 128.759C252.788 129.404 252.512 129.982 252.132 130.42H252.124Z" fill="#B8F3FF"/>
<ellipse cx="235.331" cy="132.753" rx="8.94221" ry="10.0521" fill="#D9D9D9" fill-opacity="0.1"/>
<path d="M237.634 136.638C237.487 137.18 237.231 137.645 236.898 137.974C236.565 138.302 236.172 138.477 235.769 138.477C235.366 138.477 234.973 138.302 234.64 137.974C234.307 137.645 233.708 136.454 233.561 135.912C233.462 135.573 233.462 136.591 233.561 136.928C233.743 137.557 234.05 138.094 234.443 138.472C234.836 138.849 235.297 139.051 235.769 139.051C236.241 139.051 236.702 138.849 237.095 138.472C237.488 138.094 237.795 137.557 237.978 136.928C238.076 136.591 237.734 136.296 237.634 136.638Z" fill="#333333"/>
<ellipse cx="240.498" cy="129.306" rx="1.39101" ry="2.01042" fill="#333333"/>
<ellipse cx="239.902" cy="129.018" rx="0.397432" ry="0.574406" fill="#C8B8AE"/>
<ellipse cx="230.165" cy="129.306" rx="1.39101" ry="2.01042" fill="#333333"/>
<ellipse cx="230.761" cy="129.018" rx="0.397432" ry="0.574406" fill="#C8B8AE"/>
<path d="M241.129 133.41C241.424 134.078 241.443 135.381 240.703 136.064C239.963 136.748 238.746 136.554 238.45 135.886C238.155 135.218 238.515 134.122 239.254 133.438C239.994 132.755 240.833 132.742 241.129 133.41Z" fill="#FF856B"/>
<path d="M229.449 134.454C229.613 133.697 230.291 132.839 231.129 133.217C231.967 133.595 232.648 135.067 232.484 135.824C232.321 136.581 231.509 136.888 230.671 136.51C229.833 136.132 229.286 135.211 229.449 134.454Z" fill="#FF856B"/>
<path d="M235.729 131.317V131.373" stroke="#A77136" stroke-linecap="round"/>
<path d="M235.033 134.045H235.132" stroke="#A77136" stroke-linecap="round"/>
<path d="M238.114 133.67V133.614" stroke="#A77136" stroke-linecap="round"/>
<path d="M236.723 134.188H236.763" stroke="#A77136" stroke-linecap="round"/>
<path d="M232.748 133.614H232.788" stroke="#A77136" stroke-linecap="round"/>
<path d="M237.12 131.317H237.16" stroke="#A77136" stroke-linecap="round"/>
<path d="M234.338 131.317H234.455" stroke="#A77136" stroke-linecap="round"/>
<path d="M234.338 133.04H234.378" stroke="#A77136" stroke-opacity="0.6" stroke-linecap="round"/>
<path d="M233.543 132.465H233.583" stroke="#A77136" stroke-linecap="round"/>
<path d="M232.748 132.465H232.752" stroke="#A77136" stroke-opacity="0.3" stroke-linecap="round"/>
<path d="M235.133 130.741H235.136" stroke="#A77136" stroke-opacity="0.3" stroke-linecap="round"/>
<path d="M236.325 130.741H236.329" stroke="#A77136" stroke-opacity="0.3" stroke-linecap="round"/>
<path d="M233.146 131.317H233.186" stroke="#A77136" stroke-linecap="round"/>
<path d="M233.543 134.188H233.545" stroke="#A77136" stroke-opacity="0.6" stroke-linecap="round"/>
<path d="M238.312 132.465H238.318" stroke="#A77136" stroke-linecap="round"/>
<path d="M237.517 132.465H237.558" stroke="#A77136" stroke-linecap="round"/>
<path d="M235.928 133.614H236.006" stroke="#A77136" stroke-opacity="0.7" stroke-linecap="round"/>
<path d="M236.723 132.465H236.802" stroke="#A77136" stroke-opacity="0.5" stroke-linecap="round"/>
<path d="M235.133 132.465H235.211" stroke="#A77136" stroke-linecap="round"/>
<path d="M31.3909 202.684L26.7037 201.329L24.3173 207.167C24.1931 207.473 24.0088 207.701 23.7876 207.821C23.5663 207.942 23.318 207.95 23.0735 207.846C22.829 207.741 22.5993 207.527 22.413 207.231C22.2268 206.936 22.0923 206.571 22.0263 206.184L22.4228 196.475L16.2128 196.239C15.972 196.102 15.752 195.86 15.5804 195.543C15.4088 195.227 15.2932 194.85 15.248 194.459C15.2028 194.069 15.23 193.682 15.3263 193.348C15.4226 193.013 15.5836 192.746 15.7893 192.579L19.7096 189.375L19.2641 181.94C19.239 181.549 19.2871 181.171 19.4022 180.854C19.5173 180.538 19.6943 180.296 19.9111 180.159C20.1278 180.023 20.3747 179.998 20.6207 180.087C20.8666 180.176 21.1008 180.376 21.2937 180.662L24.9563 186.055L29.2588 184.043C29.4842 183.937 29.7342 183.945 29.9774 184.065C30.2205 184.186 30.4458 184.413 30.625 184.72C30.8042 185.027 30.9293 185.398 30.9844 185.788C31.0396 186.178 31.0223 186.568 30.9349 186.91L29.2793 193.45L32.3861 199.636C32.5506 199.962 32.6571 200.345 32.6923 200.737C32.7275 201.128 32.6897 201.511 32.5837 201.837C32.4777 202.163 32.3083 202.418 32.0966 202.569C31.8849 202.721 31.6404 202.762 31.3937 202.689L31.3909 202.684Z" fill="#FEEBE0"/>
<path d="M369.172 58.7881L366.399 67.8084L370.442 75.0284C370.655 75.4052 370.78 75.8729 370.804 76.3729C370.827 76.873 370.747 77.3832 370.574 77.8399C370.4 78.2966 370.141 78.6794 369.829 78.9406C369.517 79.2017 369.165 79.3295 368.818 79.3081L360.843 74.5911L358.472 87.1696C358.273 87.6059 357.994 87.9574 357.669 88.1802C357.344 88.403 356.989 88.4872 356.646 88.4222C356.304 88.3573 355.99 88.146 355.745 87.815C355.499 87.4839 355.332 87.0477 355.265 86.5608L353.96 77.2705L347.59 75.187C347.254 75.0806 346.955 74.8305 346.731 74.4681C346.506 74.1057 346.366 73.6471 346.328 73.1498C346.29 72.6524 346.355 72.1386 346.516 71.6726C346.677 71.2066 346.926 70.8092 347.232 70.5303L353.022 65.2265L352.847 55.6361C352.837 55.1333 352.931 54.6262 353.117 54.1785C353.303 53.7308 353.572 53.3626 353.891 53.1203C354.21 52.878 354.564 52.7723 354.909 52.8167C355.254 52.861 355.575 53.0534 355.83 53.3695L360.716 59.3807L366.973 55.5303C367.304 55.3258 367.661 55.2624 368 55.3483C368.34 55.4341 368.647 55.6653 368.882 56.0128C369.117 56.3603 369.271 56.8087 369.323 57.3017C369.376 57.7947 369.325 58.3105 369.177 58.7842L369.172 58.7881Z" fill="#FEEBE0"/>
<path d="M75.1767 142.461L69.1618 146.271L68.9789 155.78C68.9702 156.278 68.8577 156.753 68.6552 157.147C68.4527 157.541 68.1693 157.836 67.8405 157.995C67.5116 158.154 67.1518 158.17 66.8062 158.041C66.4605 157.912 66.1443 157.644 65.8971 157.27L62.0727 145.557L54.7914 152.413C54.4526 152.531 54.0917 152.503 53.7537 152.333C53.4157 152.163 53.1157 151.858 52.8912 151.457C52.6667 151.056 52.5276 150.577 52.4914 150.078C52.4551 149.58 52.5233 149.085 52.6875 148.656L55.8052 140.44L52.0105 132.331C51.809 131.906 51.698 131.413 51.6913 130.913C51.6846 130.414 51.7825 129.93 51.9728 129.523C52.1631 129.116 52.4373 128.803 52.761 128.625C53.0847 128.446 53.4436 128.409 53.7925 128.518L60.4046 130.567L64.4899 123.295C64.7036 122.913 64.9959 122.635 65.33 122.496C65.6641 122.356 66.0251 122.361 66.3674 122.511C66.7097 122.661 67.0182 122.948 67.2538 123.337C67.4895 123.725 67.6419 124.198 67.6918 124.695L68.6629 134.179L74.9825 137.785C75.3165 137.974 75.6085 138.296 75.8218 138.709C76.0352 139.123 76.1603 139.61 76.1817 140.11C76.203 140.609 76.1195 141.099 75.9417 141.518C75.7639 141.937 75.4996 142.266 75.1821 142.464L75.1767 142.461Z" fill="#C2F2FC"/>
<path d="M312.525 25.932L308.702 30.3058L309.848 36.8177C309.908 37.1581 309.891 37.5144 309.798 37.842C309.705 38.1696 309.54 38.454 309.325 38.6596C309.109 38.8653 308.852 38.983 308.585 38.9981C308.319 39.0132 308.055 38.925 307.827 38.7446L303.498 31.9262L299.172 38.7446C298.943 38.925 298.679 39.0132 298.413 38.9981C298.146 38.983 297.889 38.8653 297.674 38.6596C297.458 38.454 297.293 38.1696 297.2 37.842C297.107 37.5144 297.09 37.1581 297.151 36.8177L298.294 30.3125L294.47 25.932C294.268 25.7033 294.122 25.4014 294.05 25.0642C293.978 24.727 293.984 24.3695 294.066 24.0365C294.149 23.7035 294.304 23.4098 294.514 23.1923C294.723 22.9748 294.977 22.8431 295.243 22.8138L300.283 22.2415L302.25 16.0897C302.353 15.7669 302.526 15.4911 302.748 15.2972C302.97 15.1032 303.231 14.9998 303.498 14.9998C303.765 14.9998 304.026 15.1032 304.248 15.2972C304.47 15.4911 304.643 15.7669 304.746 16.0897L306.719 22.2415L311.757 22.8138C312.023 22.8431 312.277 22.9748 312.486 23.1923C312.696 23.4098 312.851 23.7035 312.934 24.0365C313.016 24.3695 313.022 24.727 312.95 25.0642C312.878 25.4014 312.732 25.7033 312.53 25.932H312.525Z" fill="#C2F2FC"/>
<path d="M319.232 162.406L316.411 168.342L318.758 174.133C318.881 174.436 318.933 174.788 318.907 175.147C318.881 175.505 318.778 175.854 318.611 176.149C318.444 176.444 318.22 176.672 317.968 176.806C317.716 176.939 317.446 176.971 317.193 176.899L311.739 172.23L308.905 180.756C308.721 181.033 308.485 181.236 308.227 181.34C307.969 181.444 307.7 181.445 307.454 181.342C307.208 181.239 306.996 181.037 306.844 180.762C306.692 180.486 306.607 180.149 306.6 179.793L306.446 172.988L301.944 170.453C301.706 170.322 301.508 170.095 301.375 169.801C301.241 169.507 301.178 169.158 301.193 168.799C301.208 168.44 301.301 168.086 301.459 167.783C301.618 167.479 301.836 167.238 302.085 167.091L306.801 164.291L307.504 157.461C307.54 157.103 307.653 156.759 307.829 156.472C308.004 156.186 308.234 155.969 308.49 155.85C308.745 155.731 309.015 155.715 309.265 155.804C309.514 155.893 309.733 156.082 309.894 156.349L312.964 161.422L317.898 159.731C318.159 159.64 318.427 159.655 318.669 159.772C318.911 159.889 319.117 160.104 319.259 160.389C319.402 160.675 319.476 161.018 319.472 161.377C319.468 161.735 319.386 162.092 319.236 162.404L319.232 162.406Z" fill="#C2F2FC"/>
<path d="M7.58014 15.762L5.69145 19.5185L7.22277 22.9531C7.30329 23.1324 7.33629 23.3455 7.31763 23.5659C7.29898 23.7862 7.2295 24.004 7.11789 24.1919C7.00629 24.3798 6.85749 24.5296 6.69012 24.6225C6.52275 24.7154 6.34422 24.7473 6.17686 24.7142L2.58513 22.106L0.678317 27.4465C0.555504 27.6237 0.398747 27.7584 0.227644 27.8337C0.0565416 27.909 -0.121315 27.9215 -0.283688 27.8698C-0.446062 27.818 -0.585747 27.7041 -0.685281 27.5425C-0.784814 27.3809 -0.839779 27.1787 -0.843304 26.9611L-0.919878 22.808L-3.88975 21.4614C-4.04645 21.3919 -4.17662 21.2621 -4.26392 21.0883C-4.35122 20.9144 -4.39177 20.7042 -4.38049 20.4841C-4.3692 20.2639 -4.30658 20.0436 -4.20049 19.8507C-4.09439 19.6578 -3.94953 19.501 -3.78408 19.3999L-0.652851 17.4753L-0.16239 13.2681C-0.136968 13.0475 -0.0609128 12.832 0.0561979 12.6489C0.173308 12.4657 0.326239 12.3231 0.495733 12.2389C0.665227 12.1546 0.843707 12.1326 1.0087 12.1756C1.17369 12.2186 1.31782 12.3246 1.42293 12.4803L3.43592 15.4436L6.70736 14.1867C6.88005 14.1198 7.05741 14.1165 7.21721 14.1772C7.37701 14.238 7.51213 14.3601 7.60563 14.5281C7.69913 14.6962 7.74684 14.9029 7.74278 15.1221C7.73873 15.3414 7.68309 15.5635 7.58283 15.7607L7.58014 15.762Z" fill="#FEEBE0"/>
<path d="M120.375 24.5331L118.484 28.2633L120.006 31.661C120.086 31.8384 120.119 32.0495 120.1 32.268C120.081 32.4864 120.011 32.7025 119.9 32.8892C119.788 33.0759 119.639 33.2249 119.472 33.3176C119.305 33.4103 119.126 33.4427 118.959 33.4105L115.379 30.8399L113.466 36.1399C113.344 36.3161 113.187 36.4502 113.016 36.5255C112.845 36.6008 112.668 36.6139 112.506 36.5632C112.344 36.5125 112.204 36.4003 112.105 36.2405C112.006 36.0808 111.952 35.8806 111.949 35.6649L111.879 31.5494L108.917 30.2267C108.761 30.1584 108.631 30.0303 108.544 29.8584C108.457 29.6864 108.417 29.4782 108.429 29.26C108.44 29.0418 108.503 28.8232 108.61 28.6316C108.716 28.4401 108.861 28.2841 109.026 28.1833L112.155 26.2636L112.651 22.0922C112.677 21.8734 112.753 21.6596 112.87 21.4777C112.988 21.2957 113.141 21.1537 113.31 21.0696C113.479 20.9854 113.657 20.9629 113.822 21.0048C113.987 21.0468 114.13 21.1513 114.235 21.3052L116.239 24.2339L119.507 22.9754C119.679 22.9084 119.856 22.9045 120.016 22.964C120.175 23.0236 120.31 23.144 120.403 23.3102C120.496 23.4764 120.543 23.681 120.539 23.8983C120.534 24.1157 120.478 24.336 120.378 24.5318L120.375 24.5331Z" fill="#FEEBE0"/>
<path d="M357.543 143.742L357.434 151.082L361.517 153.791C361.731 153.932 361.905 154.177 362.017 154.494C362.128 154.811 362.174 155.188 362.146 155.576C362.119 155.964 362.02 156.347 361.862 156.677C361.705 157.007 361.495 157.269 361.26 157.43L355.042 158.357L355.886 167.837C355.838 168.225 355.72 168.597 355.547 168.908C355.373 169.219 355.153 169.454 354.912 169.585C354.672 169.715 354.423 169.734 354.195 169.641C353.968 169.547 353.773 169.344 353.634 169.058L350.975 163.601L346.333 165.45C346.089 165.55 345.842 165.536 345.623 165.411C345.404 165.286 345.222 165.055 345.101 164.747C344.979 164.439 344.924 164.067 344.941 163.679C344.959 163.291 345.048 162.903 345.198 162.565L348.031 156.146L346.067 149.92C345.963 149.594 345.928 149.213 345.966 148.824C346.003 148.436 346.111 148.057 346.277 147.736C346.443 147.416 346.658 147.167 346.897 147.022C347.135 146.876 347.385 146.841 347.616 146.92L352.027 148.407L355.451 142.709C355.632 142.407 355.857 142.185 356.1 142.069C356.342 141.954 356.591 141.951 356.815 142.061C357.038 142.171 357.227 142.389 357.357 142.687C357.487 142.985 357.553 143.35 357.545 143.737L357.543 143.742Z" fill="#FEEBE0"/>
<path d="M59.9112 87.0017L55.2194 88.5054L54.4236 95.2115C54.3826 95.5625 54.2667 95.8772 54.0903 96.1162C53.9139 96.3551 53.6849 96.5077 53.4318 96.555C53.1787 96.6022 52.9128 96.5419 52.6674 96.3816C52.422 96.2214 52.2079 95.9683 52.0519 95.654L50.0517 86.5871L44.2162 89.9982C43.9587 90.0141 43.6949 89.9223 43.458 89.7344C43.2211 89.5465 43.0215 89.2708 42.8841 88.9418C42.7468 88.6127 42.6778 88.245 42.6858 87.8845C42.6937 87.5239 42.7784 87.1867 42.929 86.9148L45.7949 81.7103L43.566 75.2039C43.4472 74.8626 43.3998 74.4908 43.4296 74.1353C43.4594 73.7799 43.5651 73.4565 43.7335 73.2057C43.9018 72.9549 44.1254 72.7879 44.3761 72.7256C44.6267 72.6634 44.8934 72.7086 45.1426 72.8557L49.8664 75.6255L53.3788 71.2827C53.5626 71.0545 53.7971 70.9155 54.0527 70.8831C54.3083 70.8508 54.5735 70.9265 54.8151 71.1009C55.0566 71.2752 55.2636 71.5403 55.41 71.8628C55.5565 72.1854 55.6358 72.5509 55.6379 72.9133L55.6932 79.8312L60.0934 83.6471C60.3261 83.8478 60.5186 84.134 60.6469 84.4698C60.7751 84.8055 60.8334 85.1759 60.8143 85.5345C60.7953 85.893 60.6997 86.2238 60.5398 86.4853C60.3798 86.7468 60.1624 86.9275 59.915 87.0045L59.9112 87.0017Z" fill="#FFFF93"/>
<path d="M100.402 164.146L99.1651 168.473L101.185 171.195C101.291 171.337 101.356 171.53 101.373 171.749C101.389 171.967 101.356 172.203 101.278 172.426C101.2 172.649 101.079 172.849 100.932 173.002C100.785 173.155 100.617 173.253 100.45 173.285L96.5672 172.137L95.5614 177.993C95.4704 178.21 95.34 178.399 95.1863 178.536C95.0327 178.673 94.8627 178.753 94.6975 178.765C94.5324 178.776 94.3794 178.72 94.2578 178.602C94.1362 178.484 94.0513 178.311 94.0137 178.103L93.2878 174.139L90.2045 173.969C90.042 173.961 89.8958 173.886 89.7841 173.752C89.6724 173.618 89.6002 173.431 89.5765 173.215C89.5529 172.999 89.5788 172.763 89.6512 172.538C89.7235 172.312 89.839 172.107 89.9831 171.947L92.7091 168.911L92.5231 164.68C92.5131 164.459 92.5528 164.223 92.6373 164.002C92.7218 163.782 92.8473 163.587 92.998 163.442C93.1487 163.296 93.3178 163.208 93.4841 163.186C93.6504 163.165 93.8065 163.213 93.9325 163.323L96.3443 165.409L99.3107 162.962C99.4672 162.833 99.6382 162.762 99.8022 162.76C99.9663 162.758 100.116 162.824 100.233 162.95C100.35 163.077 100.428 163.257 100.459 163.47C100.489 163.682 100.47 163.917 100.404 164.144L100.402 164.146Z" fill="#FFFF93"/>
<path d="M294.555 118.473L291.585 119.55L291.373 123.702C291.363 123.92 291.302 124.117 291.199 124.27C291.095 124.422 290.954 124.524 290.792 124.561C290.63 124.598 290.455 124.57 290.289 124.479C290.123 124.388 289.973 124.239 289.858 124.051L288.151 118.536L284.526 120.823C284.36 120.841 284.185 120.793 284.023 120.685C283.861 120.577 283.719 120.414 283.616 120.216C283.512 120.018 283.45 119.794 283.439 119.572C283.428 119.35 283.467 119.14 283.553 118.967L285.173 115.672L283.434 111.74C283.342 111.534 283.294 111.307 283.297 111.087C283.3 110.867 283.354 110.665 283.452 110.505C283.549 110.346 283.687 110.236 283.846 110.189C284.006 110.143 284.18 110.162 284.348 110.244L287.534 111.797L289.611 109.011C289.72 108.865 289.865 108.771 290.03 108.743C290.194 108.715 290.369 108.753 290.533 108.853C290.697 108.952 290.844 109.109 290.953 109.302C291.063 109.496 291.13 109.719 291.148 109.942L291.498 114.197L294.521 116.403C294.681 116.519 294.818 116.689 294.917 116.891C295.015 117.094 295.069 117.32 295.073 117.541C295.077 117.763 295.03 117.969 294.939 118.135C294.847 118.301 294.714 118.419 294.558 118.475L294.555 118.473Z" fill="#FFFF93"/>
<path d="M415.251 151.02L411.278 160.525L415.094 169.679C415.295 170.157 415.39 170.717 415.367 171.287C415.345 171.858 415.206 172.415 414.968 172.888C414.73 173.361 414.404 173.729 414.03 173.947C413.656 174.165 413.251 174.223 412.865 174.113L404.414 166.815L400.546 180.439C400.281 180.882 399.935 181.211 399.551 181.382C399.167 181.554 398.761 181.561 398.385 181.403C398.009 181.245 397.68 180.929 397.437 180.494C397.195 180.06 397.051 179.526 397.023 178.959L396.466 168.142L389.553 164.216C389.188 164.013 388.879 163.657 388.663 163.192C388.448 162.727 388.336 162.174 388.341 161.603C388.347 161.032 388.47 160.468 388.695 159.981C388.919 159.494 389.236 159.107 389.605 158.867L396.587 154.306L397.321 143.429C397.359 142.859 397.513 142.309 397.764 141.849C398.015 141.389 398.352 141.04 398.731 140.845C399.111 140.65 399.517 140.618 399.898 140.753C400.279 140.888 400.619 141.185 400.873 141.605L405.747 149.602L413.111 146.797C413.499 146.648 413.905 146.665 414.275 146.845C414.646 147.026 414.966 147.363 415.196 147.814C415.425 148.264 415.553 148.809 415.564 149.379C415.575 149.949 415.468 150.519 415.257 151.017L415.251 151.02Z" fill="#FFF0A6" fill-opacity="0.6"/>
<path d="M386.505 211.071L385.083 219.473L389.285 224.449C389.505 224.708 389.661 225.068 389.733 225.485C389.805 225.901 389.79 226.355 389.69 226.789C389.59 227.224 389.409 227.62 389.171 227.928C388.932 228.236 388.645 228.442 388.347 228.521L381.055 226.759L380.348 238.057C380.224 238.482 380.023 238.857 379.769 239.136C379.516 239.415 379.222 239.586 378.923 239.626C378.624 239.667 378.335 239.576 378.091 239.365C377.847 239.153 377.659 238.831 377.551 238.438L375.468 230.947L369.819 230.964C369.522 230.968 369.241 230.84 369.012 230.596C368.783 230.352 368.616 230.004 368.531 229.594C368.447 229.184 368.449 228.731 368.537 228.292C368.626 227.853 368.796 227.448 369.028 227.126L373.41 221.025L372.259 212.965C372.198 212.542 372.225 212.087 372.336 211.657C372.448 211.226 372.639 210.84 372.886 210.546C373.132 210.252 373.423 210.064 373.722 210.005C374.021 209.946 374.314 210.019 374.565 210.215L379.358 213.934L384.29 208.931C384.55 208.665 384.848 208.512 385.147 208.49C385.445 208.468 385.731 208.578 385.968 208.806C386.205 209.034 386.382 209.37 386.479 209.772C386.575 210.174 386.586 210.625 386.509 211.067L386.505 211.071Z" fill="#FFF0A6" fill-opacity="0.7"/>
<path d="M238.096 507.016C232.128 496.984 234.653 484.961 239.617 481.764C243.655 479.164 250.453 481.671 254.823 488.91C258.06 480.559 264.879 475.464 271.93 476.045C280.066 476.719 287.017 484.828 288.277 495.577C288.528 495.341 294.018 490.364 298.921 493.194C304.127 496.198 304.812 505.779 303.104 511.775C302.761 512.978 301.825 516.125 299.303 518.445C295.497 521.95 289.885 521.906 284.856 518.445C284.11 519.791 279.094 528.511 269.65 529.878C260.619 531.186 254.348 524.786 253.302 523.683C245.529 531.581 236.438 529.741 233.913 524.637C231.878 520.527 233.422 512.903 238.096 507.016Z" fill="#FFFF93" fill-opacity="0.8"/>
<path d="M49.7589 518.702C44.0575 508.705 46.47 496.723 51.212 493.537C55.07 490.946 61.5646 493.444 65.74 500.658C68.8324 492.336 75.3472 487.259 82.0836 487.837C89.8576 488.509 96.4983 496.59 97.702 507.302C97.9412 507.067 103.187 502.107 107.871 504.928C112.844 507.922 113.499 517.47 111.867 523.445C111.54 524.643 110.646 527.78 108.236 530.092C104.6 533.585 99.2382 533.541 94.4333 530.092C93.7206 531.433 88.9283 540.123 79.9053 541.486C71.2777 542.789 65.2867 536.411 64.2869 535.312C56.8605 543.182 48.1749 541.35 45.7624 536.263C43.8183 532.167 45.294 524.569 49.7589 518.702Z" fill="#CAFFD0" fill-opacity="0.5"/>
<path d="M117.6 513.288C112.112 503.291 114.434 491.309 118.998 488.123C122.711 485.532 128.963 488.03 132.981 495.244C135.958 486.922 142.228 481.844 148.712 482.423C156.194 483.095 162.586 491.176 163.745 501.888C163.975 501.653 169.024 496.693 173.532 499.514C178.319 502.507 178.95 512.056 177.379 518.031C177.064 519.229 176.203 522.366 173.884 524.678C170.384 528.171 165.223 528.127 160.599 524.678C159.913 526.019 155.3 534.709 146.615 536.072C138.311 537.375 132.545 530.997 131.583 529.898C124.435 537.768 116.075 535.935 113.753 530.849C111.882 526.753 113.302 519.155 117.6 513.288Z" fill="#E7FBFF" fill-opacity="0.6"/>
<path d="M-2.63553 537.166C-8.96052 521.998 -6.28413 503.819 -1.02355 498.985C3.25643 495.054 10.4614 498.845 15.0934 509.79C18.5241 497.163 25.7515 489.459 33.2247 490.337C41.8489 491.357 49.2159 503.617 50.5513 519.87C50.8167 519.513 56.6361 511.988 61.8324 516.267C67.35 520.81 68.0764 535.297 66.266 544.363C65.9028 546.181 64.9111 550.939 62.2375 554.448C58.2034 559.747 52.2555 559.681 46.9251 554.448C46.1345 556.482 40.818 569.668 30.8081 571.735C21.2368 573.712 14.5906 564.036 13.4815 562.368C5.24277 574.309 -4.39278 571.528 -7.06917 563.81C-9.22592 557.596 -7.5888 546.068 -2.63553 537.166Z" fill="#CAFFD0"/>
<path d="M83.1717 549.028C76.6318 539.024 79.3992 527.035 84.8385 523.848C89.2639 521.255 96.7137 523.755 101.503 530.973C105.05 522.646 112.523 517.565 120.25 518.144C129.168 518.817 136.785 526.902 138.166 537.621C138.44 537.386 144.457 532.423 149.83 535.245C155.535 538.241 156.286 547.795 154.414 553.774C154.039 554.972 153.013 558.111 150.249 560.425C146.078 563.919 139.928 563.876 134.416 560.425C133.599 561.766 128.102 570.462 117.752 571.825C107.855 573.129 100.983 566.748 99.8363 565.648C91.3177 573.523 81.3548 571.689 78.5875 566.599C76.3574 562.5 78.0502 554.898 83.1717 549.028Z" fill="#FFFF93" fill-opacity="0.9"/>
<path d="M173.598 546.173C166.697 534.927 169.617 521.448 175.356 517.864C180.026 514.949 187.886 517.76 192.939 525.875C196.682 516.513 204.566 510.801 212.719 511.452C222.128 512.208 230.165 521.298 231.622 533.349C231.911 533.084 238.26 527.505 243.929 530.678C249.948 534.046 250.741 544.787 248.766 551.509C248.369 552.856 247.287 556.385 244.371 558.986C239.97 562.915 233.481 562.866 227.666 558.986C226.803 560.494 221.003 570.271 210.083 571.803C199.641 573.27 192.39 566.095 191.18 564.858C182.193 573.712 171.681 571.65 168.761 565.928C166.408 561.32 168.194 552.773 173.598 546.173Z" fill="#C2F2FC"/>
<path d="M323.384 539.897C316.168 525.936 319.222 509.203 325.223 504.754C330.106 501.135 338.326 504.624 343.61 514.698C347.524 503.076 355.769 495.985 364.295 496.793C374.134 497.732 382.539 509.017 384.062 523.977C384.365 523.649 391.004 516.722 396.932 520.661C403.227 524.842 404.055 538.176 401.99 546.521C401.576 548.195 400.444 552.575 397.394 555.805C392.792 560.682 386.006 560.621 379.925 555.805C379.023 557.677 372.958 569.814 361.538 571.716C350.619 573.536 343.036 564.629 341.771 563.094C332.372 574.085 321.379 571.526 318.326 564.422C315.866 558.701 317.733 548.091 323.384 539.897Z" fill="#CAFFD0" fill-opacity="0.8"/>
<path d="M255.202 546.042C248.805 534.838 251.512 521.41 256.832 517.84C261.16 514.936 268.446 517.736 273.13 525.82C276.6 516.494 283.908 510.803 291.466 511.452C300.187 512.205 307.637 521.261 308.988 533.266C309.256 533.002 315.141 527.444 320.396 530.605C325.976 533.96 326.71 544.661 324.879 551.357C324.512 552.7 323.509 556.215 320.806 558.807C316.726 562.72 310.711 562.672 305.321 558.807C304.521 560.309 299.145 570.048 289.022 571.575C279.343 573.036 272.622 565.888 271.5 564.656C263.169 573.476 253.424 571.422 250.718 565.722C248.537 561.131 250.192 552.617 255.202 546.042Z" fill="#C2F2FC"/>
</g>
<defs>
<clipPath id="clip0_97_2782">
<rect width="386" height="823" rx="40" fill="white"/>
</clipPath>
</defs>
</svg>
