<svg width="32" height="32" viewBox="0 0 32 32" fill="none" xmlns="http://www.w3.org/2000/svg">
<rect width="32" height="32" rx="8" fill="#F7F8F8"/>
<g clip-path="url(#clip0_18_2942)">
<path d="M19.375 14.875C19.375 16.7425 17.8675 18.25 16 18.25C14.1325 18.25 12.625 16.7425 12.625 14.875C12.625 13.0075 14.1325 11.5 16 11.5C17.8675 11.5 19.375 13.0075 19.375 14.875Z" fill="black"/>
<path fill-rule="evenodd" clip-rule="evenodd" d="M25 16C25 20.9725 20.9725 25 16 25C11.0275 25 7 20.9725 7 16C7 11.0275 11.0275 7 16 7C20.9725 7 25 11.0275 25 16ZM11.5 22.4688C11.68 22.1695 13.4237 19.375 15.9887 19.375C18.5425 19.375 20.2975 22.1763 20.4775 22.4688C21.5236 21.7454 22.3783 20.7787 22.9682 19.6519C23.5581 18.5251 23.8654 17.2719 23.8638 16C23.8638 11.6463 20.3425 8.125 15.9887 8.125C11.635 8.125 8.11375 11.6463 8.11375 16C8.11375 18.6775 9.4525 21.0513 11.5 22.4688Z" fill="black"/>
</g>
<defs>
<clipPath id="clip0_18_2942">
<rect width="18" height="18" fill="white" transform="translate(7 7)"/>
</clipPath>
</defs>
</svg>
