<svg width="12" height="16" viewBox="0 0 12 16" fill="none" xmlns="http://www.w3.org/2000/svg">
<path fill-rule="evenodd" clip-rule="evenodd" d="M6.64286 13.568V16H5.35714V13.568C3.88563 13.42 2.52464 12.7696 1.53577 11.7418C0.546905 10.714 -6.22716e-05 9.38137 5.31749e-09 8V6.4H1.28571V8C1.28571 9.16695 1.7824 10.2861 2.6665 11.1113C3.5506 11.9364 4.74969 12.4 6 12.4C7.25031 12.4 8.4494 11.9364 9.3335 11.1113C10.2176 10.2861 10.7143 9.16695 10.7143 8V6.4H12V8C12.0001 9.38137 11.4531 10.714 10.4642 11.7418C9.47536 12.7696 8.11437 13.42 6.64286 13.568ZM2.57143 3.2C2.57143 2.35131 2.93265 1.53737 3.57563 0.937258C4.21862 0.337142 5.09069 0 6 0C6.90931 0 7.78138 0.337142 8.42437 0.937258C9.06735 1.53737 9.42857 2.35131 9.42857 3.2V8C9.42857 8.84869 9.06735 9.66263 8.42437 10.2627C7.78138 10.8629 6.90931 11.2 6 11.2C5.09069 11.2 4.21862 10.8629 3.57563 10.2627C2.93265 9.66263 2.57143 8.84869 2.57143 8V3.2Z" fill="white"/>
</svg>
