<svg width="12" height="13" viewBox="0 0 12 13" fill="none" xmlns="http://www.w3.org/2000/svg">
<path fill-rule="evenodd" clip-rule="evenodd" d="M6.55143 9.64174V7.90815H3.43021C3.09863 7.90753 2.77042 7.9643 2.46587 8.07494C2.16132 8.18559 1.88691 8.34775 1.65958 8.55142C1.43225 8.75509 1.25685 8.99593 1.14421 9.25905C1.03157 9.52218 0.98408 9.802 1.00469 10.0812C1.02529 10.3605 1.11356 10.6331 1.26402 10.8824C1.41447 11.1318 1.62394 11.3524 1.87945 11.5307C2.13497 11.709 2.43111 11.8412 2.74958 11.9191C3.06804 11.997 3.40206 12.019 3.73099 11.9836L4.1467 11.9396C4.8103 11.8693 5.42072 11.5972 5.86345 11.1743C6.30619 10.7514 6.55081 10.206 6.55143 9.64174Z" fill="white"/>
<path d="M6.55141 4.12986V3.74511C6.55141 2.7256 6.55141 2.21617 6.90518 1.86416C7.25894 1.51215 7.85453 1.42777 9.04569 1.25963L10.8056 1.01279C10.9071 0.998932 10.9578 0.991375 10.9847 1.01656C11.0116 1.04175 10.9996 1.08331 10.975 1.16769L10.307 3.42269C10.2958 3.46048 10.2899 3.47937 10.2742 3.49196C10.2585 3.50456 10.2369 3.50833 10.1913 3.51589L6.55141 4.12986ZM6.55141 4.12986V7.90813M6.55141 7.90813V9.64173C6.55116 10.2062 6.3067 10.7512 5.86393 11.1744C5.42116 11.5976 4.81053 11.8699 4.14668 11.9402L3.73097 11.9843C3.40243 12.0188 3.06898 11.9963 2.75116 11.918C2.43335 11.8397 2.1379 11.7074 1.88302 11.5291C1.62815 11.3508 1.41925 11.1303 1.26919 10.8813C1.11914 10.6323 1.03112 10.36 1.01055 10.0812C0.989972 9.80239 1.03729 9.52298 1.14957 9.26019C1.26186 8.99741 1.43674 8.7568 1.66343 8.55321C1.89013 8.34961 2.16384 8.18735 2.46769 8.0764C2.77155 7.96546 3.09911 7.90819 3.43019 7.90813H6.55141Z" stroke="white" stroke-width="2"/>
</svg>
