<svg width="18" height="18" viewBox="0 0 18 18" fill="none" xmlns="http://www.w3.org/2000/svg">
<path fill-rule="evenodd" clip-rule="evenodd" d="M7.3335 15.75H10.6665C13.0072 15.75 14.178 15.75 15.0187 15.1988C15.3816 14.9611 15.6941 14.6543 15.9382 14.2958C16.5 13.4708 16.5 12.321 16.5 10.023C16.5 7.72504 16.5 6.57528 15.9382 5.75028C15.6941 5.39178 15.3816 5.08493 15.0187 4.84728C14.4787 4.49253 13.8022 4.36578 12.7665 4.32079C12.2722 4.32079 11.847 3.95328 11.7502 3.47704C11.6763 3.12819 11.4842 2.81556 11.2064 2.592C10.9286 2.36843 10.5821 2.24764 10.2255 2.25003H7.7745C7.0335 2.25003 6.39525 2.76379 6.24975 3.47704C6.153 3.95328 5.72775 4.32079 5.2335 4.32079C4.1985 4.36578 3.522 4.49328 2.98125 4.84728C2.61865 5.08501 2.30646 5.39185 2.0625 5.75028C1.5 6.57528 1.5 7.72429 1.5 10.023C1.5 12.3218 1.5 13.47 2.06175 14.2958C2.30475 14.6528 2.61675 14.9595 2.98125 15.1988C3.822 15.75 4.99275 15.75 7.3335 15.75ZM9 6.95478C7.27425 6.95478 5.87475 8.32803 5.87475 10.0223C5.87475 11.7165 7.275 13.092 9 13.092C10.725 13.092 12.1252 11.718 12.1252 10.0238C12.1252 8.32954 10.725 6.95478 9 6.95478ZM9 8.18179C7.965 8.18179 7.125 9.00604 7.125 10.023C7.125 11.0393 7.965 11.8635 9 11.8635C10.035 11.8635 10.875 11.0393 10.875 10.023C10.875 9.00679 10.035 8.18179 9 8.18179ZM12.5415 7.56828C12.5415 7.22928 12.8212 6.95478 13.167 6.95478H13.9995C14.3445 6.95478 14.625 7.22928 14.625 7.56828C14.6234 7.73246 14.5567 7.88929 14.4396 8.00432C14.3224 8.11936 14.1644 8.18318 14.0002 8.18179H13.167C13.0856 8.18258 13.0049 8.16734 12.9295 8.13693C12.854 8.10653 12.7853 8.06156 12.7272 8.00459C12.6691 7.94762 12.6228 7.87977 12.5909 7.80491C12.5591 7.73004 12.5423 7.64964 12.5415 7.56828Z" fill="black"/>
</svg>
