<svg width="136" height="94" viewBox="0 0 136 94" fill="none" xmlns="http://www.w3.org/2000/svg">
<rect width="136" height="94" rx="13" fill="#74DE80"/>
<mask id="mask0_230_2816" style="mask-type:alpha" maskUnits="userSpaceOnUse" x="0" y="44" width="136" height="50">
<rect y="44.4595" width="136" height="49.5405" rx="12" fill="#C4C4C4"/>
</mask>
<g mask="url(#mask0_230_2816)">
<path opacity="0.3" d="M-24.7273 78.1216C-18.1914 68.6119 -2.13822 62.7765 23.3223 60.6554C52.0887 58.2589 65.4503 76.5805 92.3901 72.0878C112.189 68.7861 107.521 60.4034 122.793 54.6216C135.616 49.7675 144.347 47.4285 160.727 44.4595" stroke="white"/>
<path opacity="0.3" d="M-24.7273 85.7432C-18.1914 76.2335 -2.13822 70.3981 23.3223 68.277C52.0887 65.8805 65.4503 84.2021 92.3901 79.7095C112.189 76.4077 107.521 68.025 122.793 62.2432C135.616 57.3892 144.347 55.0501 160.727 52.0811" stroke="white"/>
<path opacity="0.3" d="M-24.7273 83.2027C-18.1914 73.693 -2.13822 67.8576 23.3223 65.7365C52.0887 63.34 65.4503 81.6616 92.3901 77.1689C112.189 73.8671 107.521 65.4845 122.793 59.7027C135.616 54.8486 144.347 52.5096 160.727 49.5405" stroke="white"/>
<path opacity="0.3" d="M-24.7273 80.6622C-18.1914 71.1525 -2.13822 65.3171 23.3223 63.1959C52.0887 60.7994 65.4503 79.1211 92.3901 74.6284C112.189 71.3266 107.521 62.9439 122.793 57.1622C135.616 52.3081 144.347 49.9691 160.727 47" stroke="white"/>
<path d="M-4.94556 56.527C0.47818 66.0367 13.7998 71.8721 34.928 73.9932C58.7996 76.3898 69.8875 58.0681 92.2433 62.5608C108.673 65.8626 104.799 74.2452 117.473 80.027C128.114 84.8811 135.359 87.2201 148.952 90.1892" stroke="white" stroke-width="1.2"/>
<path d="M-4.94556 48.9054C0.47818 58.4151 13.7998 64.2505 34.928 66.3716C58.7996 68.7681 69.8875 50.4465 92.2433 54.9392C108.673 58.241 104.799 66.6236 117.473 72.4054C128.114 77.2595 135.359 79.5985 148.952 82.5676" stroke="white" stroke-width="1.2"/>
<path d="M-4.94556 51.4459C0.47818 60.9556 13.7998 66.791 34.928 68.9122C58.7996 71.3087 69.8875 52.987 92.2433 57.4797C108.673 60.7815 104.799 69.1642 117.473 74.9459C128.114 79.8 135.359 82.139 148.952 85.1081" stroke="white" stroke-width="1.2"/>
<path d="M-4.94556 53.9865C0.47818 63.4962 13.7998 69.3316 34.928 71.4527C58.7996 73.8492 69.8875 55.5276 92.2433 60.0203C108.673 63.322 104.799 71.7047 117.473 77.4865C128.114 82.3406 135.359 84.6796 148.952 87.6486" stroke="white" stroke-width="1.2"/>
</g>
<path d="M9.82501 17.3987H15.635V25.5887H9.82501V17.3987ZM14.501 18.3367H10.959V24.6507H14.501V18.3367ZM17.889 16.1387H19.065V28.7947H17.889V16.1387ZM18.785 21.1927H21.137V22.1727H18.785V21.1927ZM31.3979 16.1247H32.5599V28.8087H31.3979V16.1247ZM25.8819 17.1047C27.7579 17.1047 29.1019 18.8267 29.1019 21.5147C29.1019 24.2167 27.7579 25.9387 25.8819 25.9387C24.0199 25.9387 22.6759 24.2167 22.6759 21.5147C22.6759 18.8267 24.0199 17.1047 25.8819 17.1047ZM25.8819 18.1547C24.6499 18.1547 23.7819 19.4707 23.7819 21.5147C23.7819 23.5727 24.6499 24.9167 25.8819 24.9167C27.1279 24.9167 27.9819 23.5727 27.9819 21.5147C27.9819 19.4707 27.1279 18.1547 25.8819 18.1547ZM36.4508 17.4267H44.4868V18.3787H36.4508V17.4267ZM35.0928 26.0647H46.5308V27.0447H35.0928V26.0647ZM43.9828 17.4267H45.1168V18.9807C45.1168 20.8427 45.1168 22.5647 44.5848 25.1547L43.4368 25.0427C43.9828 22.6067 43.9828 20.8007 43.9828 18.9807V17.4267ZM44.2768 20.9267V21.7947L36.2828 22.2287L36.1148 21.2627L44.2768 20.9267ZM57.5724 19.6807H61.0444V20.6187H57.5724V19.6807ZM57.4324 23.0547H60.9044V24.0067H57.4324V23.0547ZM56.8584 17.4547H57.9784C57.9784 21.1087 56.7184 24.4687 52.2664 26.7087L51.6084 25.8127C55.5144 23.8527 56.8584 21.0387 56.8584 17.5807V17.4547ZM52.2944 17.4547H57.5584V18.3927H52.2944V17.4547ZM56.7884 20.5907V21.4727L51.8464 21.9347L51.6504 20.9267L56.7884 20.5907ZM60.8484 16.1247H62.0104V28.7807H60.8484V16.1247ZM73.6994 16.1387H74.8614V28.7947H73.6994V16.1387ZM69.9894 17.4967H71.1374C71.1374 21.1647 69.4854 24.3707 65.2574 26.4427L64.6414 25.5047C68.2954 23.7407 69.9894 21.0527 69.9894 17.6927V17.4967ZM65.2154 17.4967H70.4934V18.4487H65.2154V17.4967Z" fill="white"/>
<path d="M12.115 36.1322C13.711 36.1322 14.839 37.6082 14.839 39.9122C14.839 42.2282 13.711 43.7042 12.115 43.7042C10.519 43.7042 9.39101 42.2282 9.39101 39.9122C9.39101 37.6082 10.519 36.1322 12.115 36.1322ZM12.115 37.0322C11.059 37.0322 10.339 38.1602 10.339 39.9122C10.339 41.6762 11.059 42.8282 12.115 42.8282C13.159 42.8282 13.891 41.6762 13.891 39.9122C13.891 38.1602 13.159 37.0322 12.115 37.0322ZM16.567 35.3042H17.575V46.1522H16.567V35.3042ZM17.335 39.6362H19.351V40.4762H17.335V39.6362ZM28.1461 35.2922H29.1421V46.1642H28.1461V35.2922ZM23.4181 36.1322C25.0261 36.1322 26.1781 37.6082 26.1781 39.9122C26.1781 42.2282 25.0261 43.7042 23.4181 43.7042C21.8221 43.7042 20.6701 42.2282 20.6701 39.9122C20.6701 37.6082 21.8221 36.1322 23.4181 36.1322ZM23.4181 37.0322C22.3621 37.0322 21.6181 38.1602 21.6181 39.9122C21.6181 41.6762 22.3621 42.8282 23.4181 42.8282C24.4861 42.8282 25.2181 41.6762 25.2181 39.9122C25.2181 38.1602 24.4861 37.0322 23.4181 37.0322ZM34.0491 40.7762H35.0451V43.3682H34.0491V40.7762ZM34.5411 36.0002C36.2091 36.0002 37.4091 37.0442 37.4091 38.5562C37.4091 40.0682 36.2091 41.1122 34.5411 41.1122C32.8731 41.1122 31.6731 40.0682 31.6731 38.5562C31.6731 37.0442 32.8731 36.0002 34.5411 36.0002ZM34.5411 36.8522C33.4371 36.8522 32.6451 37.5482 32.6451 38.5562C32.6451 39.5642 33.4371 40.2602 34.5411 40.2602C35.6451 40.2602 36.4371 39.5642 36.4371 38.5562C36.4371 37.5482 35.6451 36.8522 34.5411 36.8522ZM38.6451 35.3042H39.6411V46.1522H38.6451V35.3042ZM39.3531 39.7682H41.3571V40.6082H39.3531V39.7682ZM31.3251 43.8122L31.1811 42.9842C33.1371 42.9722 35.7531 42.9602 37.9611 42.6602L38.0451 43.4042C35.7531 43.7882 33.2211 43.8122 31.3251 43.8122ZM46.5084 43.9202H56.3364V44.7482H46.5084V43.9202ZM50.8764 41.2922H51.8604V44.1962H50.8764V41.2922ZM50.8524 36.0242H51.7164V36.8642C51.7164 39.1802 49.4964 40.9682 47.3124 41.4242L46.8924 40.5962C48.8004 40.2482 50.8524 38.6522 50.8524 36.8642V36.0242ZM51.0324 36.0242H51.8964V36.8642C51.8964 38.6642 53.9604 40.2482 55.8684 40.5962L55.4364 41.4242C53.2524 40.9682 51.0324 39.1802 51.0324 36.8642V36.0242ZM57.5355 41.0522H67.3395V41.8562H57.5355V41.0522ZM61.9395 39.6482H62.9235V41.3882H61.9395V39.6482ZM58.8315 39.2042H66.1875V39.9842H58.8315V39.2042ZM58.8315 35.6162H66.1395V36.3962H59.8155V39.6242H58.8315V35.6162ZM59.5275 37.3922H65.8515V38.1602H59.5275V37.3922ZM62.4315 42.6602C64.7955 42.6602 66.1515 43.2602 66.1515 44.4002C66.1515 45.5282 64.7955 46.1282 62.4315 46.1282C60.0675 46.1282 58.7115 45.5282 58.7115 44.4002C58.7115 43.2602 60.0675 42.6602 62.4315 42.6602ZM62.4315 43.4162C60.6915 43.4162 59.7195 43.7642 59.7195 44.4002C59.7195 45.0482 60.6915 45.3842 62.4315 45.3842C64.1715 45.3842 65.1435 45.0482 65.1435 44.4002C65.1435 43.7642 64.1715 43.4162 62.4315 43.4162ZM75.9306 35.3042H76.9266V46.1522H75.9306V35.3042ZM76.6866 39.7562H78.7026V40.5962H76.6866V39.7562ZM68.5266 37.0322H74.9226V37.8482H68.5266V37.0322ZM71.7666 38.7482C73.3026 38.7482 74.4066 39.7802 74.4066 41.2442C74.4066 42.7082 73.3026 43.7402 71.7666 43.7402C70.2426 43.7402 69.1266 42.7082 69.1266 41.2442C69.1266 39.7802 70.2426 38.7482 71.7666 38.7482ZM71.7666 39.5762C70.7826 39.5762 70.0746 40.2602 70.0746 41.2442C70.0746 42.2162 70.7826 42.9122 71.7666 42.9122C72.7506 42.9122 73.4586 42.2162 73.4586 41.2442C73.4586 40.2602 72.7506 39.5762 71.7666 39.5762ZM71.2506 35.4362H72.2466V37.4042H71.2506V35.4362ZM83.8976 39.1802H85.9736V40.0082H83.8976V39.1802ZM81.8696 36.3242H82.6496V38.3882C82.6496 40.6562 81.7016 42.8522 80.1176 43.8242L79.4936 43.0682C80.9816 42.1922 81.8696 40.2482 81.8696 38.3882V36.3242ZM82.0616 36.3242H82.8296V38.3522C82.8296 40.0922 83.6456 41.9402 85.0736 42.8042L84.4976 43.5842C82.9376 42.6242 82.0616 40.4642 82.0616 38.3522V36.3242ZM87.8816 35.3042H88.8416V46.1522H87.8816V35.3042ZM85.6856 35.5322H86.6216V45.6122H85.6856V35.5322ZM93.0647 40.8842H94.0487V44.1362H93.0647V40.8842ZM97.0727 40.8842H98.0687V44.1362H97.0727V40.8842ZM90.6647 43.9442H100.493V44.7722H90.6647V43.9442ZM95.5607 35.9882C97.8527 35.9882 99.4967 37.0802 99.4967 38.7842C99.4967 40.4762 97.8527 41.5682 95.5607 41.5682C93.2567 41.5682 91.6127 40.4762 91.6127 38.7842C91.6127 37.0802 93.2567 35.9882 95.5607 35.9882ZM95.5607 36.7802C93.8207 36.7802 92.5727 37.5722 92.5727 38.7842C92.5727 39.9842 93.8207 40.7762 95.5607 40.7762C97.3007 40.7762 98.5367 39.9842 98.5367 38.7842C98.5367 37.5722 97.3007 36.7802 95.5607 36.7802Z" fill="white"/>
<path fill-rule="evenodd" clip-rule="evenodd" d="M120.643 22.568V25H119.357V22.568C117.886 22.42 116.525 21.7696 115.536 20.7418C114.547 19.714 114 18.3814 114 17V15.4H115.286V17C115.286 18.167 115.782 19.2861 116.666 20.1113C117.551 20.9364 118.75 21.4 120 21.4C121.25 21.4 122.449 20.9364 123.334 20.1113C124.218 19.2861 124.714 18.167 124.714 17V15.4H126V17C126 18.3814 125.453 19.714 124.464 20.7418C123.475 21.7696 122.114 22.42 120.643 22.568ZM116.571 12.2C116.571 11.3513 116.933 10.5374 117.576 9.93726C118.219 9.33714 119.091 9 120 9C120.909 9 121.781 9.33714 122.424 9.93726C123.067 10.5374 123.429 11.3513 123.429 12.2V17C123.429 17.8487 123.067 18.6626 122.424 19.2627C121.781 19.8629 120.909 20.2 120 20.2C119.091 20.2 118.219 19.8629 117.576 19.2627C116.933 18.6626 116.571 17.8487 116.571 17V12.2Z" fill="white"/>
</svg>
