<svg width="117" height="88" viewBox="0 0 117 88" fill="none" xmlns="http://www.w3.org/2000/svg">
<path d="M0.324888 69.7345C1.53237 65.1875 13.324 65.2687 18.7353 68.1106C15.3215 67.0415 9.79095 63.1306 14.2631 60.4917C17.1104 58.7866 21.4633 60.018 24.8472 63.4012C23.0085 61.9104 21.4213 60.1823 20.1365 58.2723C18.0793 55.6199 17.647 50.5181 22.5515 48.4205C26.6957 46.6342 32.9865 48.0687 36.0723 52.4127C37.9668 55.4546 38.9918 58.8788 39.0538 62.3727C39.0538 59.991 39.1432 55.444 44.6738 55.8094C50.4428 56.1883 49.0416 62.2915 49.1459 65.377C49.1459 65.377 48.9223 56.5266 55.228 53.1976C56.6402 52.3998 58.238 51.9122 59.8943 51.7736C61.5506 51.635 63.2196 51.8492 64.7686 52.3991C66.4646 52.8712 67.8864 53.9327 68.724 55.3522C69.5617 56.7717 69.7475 58.4342 69.2408 59.9775C68.0333 63.6042 63.5761 66.7573 63.5761 66.7573C65.9618 65.6453 68.4573 64.7391 71.0297 64.0508C76.113 63.1441 84.3567 62.8734 87.6214 66.7573C90.886 70.6412 86.1306 76.1355 76.7242 76.3791C70.5079 76.5415 17.647 76.7174 11.4158 76.7174C6.49646 76.7038 -0.927316 74.4845 0.324888 69.7345Z" fill="#50CC98"/>
<path d="M116.183 63.2524C115.05 58.4347 103.945 58.5024 98.8463 61.5202C102.066 60.3699 107.224 56.2289 103.08 53.4006C100.412 51.6007 96.3121 52.8999 93.122 56.486C94.8884 54.8837 96.3943 53.061 97.5941 51.073C99.5172 48.2717 99.9048 42.9533 95.2835 40.6257C91.3928 38.7176 85.4746 40.2468 82.5528 44.8614C80.7731 48.1573 79.8307 51.7736 79.795 55.444C79.795 52.9134 79.7204 48.0822 74.5178 48.4747C69.0767 48.8807 70.4034 55.3628 70.3289 58.6377C70.3289 58.6377 70.5227 49.1648 64.5896 45.7546C63.31 44.917 61.8114 44.3977 60.2424 44.2482C58.6735 44.0986 57.0887 44.324 55.6453 44.902C53.9768 45.5403 52.6257 46.7142 51.8502 48.1995C51.0747 49.6848 50.9292 51.3775 51.4415 52.954C52.3657 56.7431 56.6292 59.991 56.6292 59.991C54.3843 58.8319 52.0172 57.8798 49.5632 57.1491C44.778 56.2018 37.0113 55.9177 33.9405 60.0316C30.8696 64.1455 35.297 70.0052 44.1966 70.2623C50.0551 70.4247 99.8302 70.6277 105.704 70.6277C110.37 70.6683 117.361 68.3001 116.183 63.2524Z" fill="#50CC98"/>
<path d="M63.114 1.8C63.114 1.8 69.5837 0.230206 71.9092 4.26295C71.4812 5.20379 70.759 6.01022 69.8318 6.5826C68.9045 7.15499 67.8129 7.46826 66.6917 7.48373C66.6917 7.48373 67.1539 2.65256 63.114 1.8Z" fill="#069FAD"/>
<path d="M74.4434 51.6406C68.4077 51.0719 62.6842 48.9231 57.9692 45.4556C53.2543 41.9881 49.751 37.3513 47.8857 32.1094C46.0205 26.8676 45.8736 21.2466 47.463 15.9303C49.0523 10.614 52.3094 5.83169 56.838 2.1651C49.6896 2.46583 42.7725 4.55723 36.8531 8.20758C30.9336 11.8579 26.243 16.9247 23.3009 22.8465C20.3587 28.7683 19.28 35.3139 20.1842 41.7581C21.0884 48.2022 23.9402 54.2934 28.4236 59.3566C32.907 64.4198 38.847 68.2573 45.5855 70.444C52.3239 72.6308 59.5977 73.0813 66.6009 71.7457C73.6041 70.4101 80.0632 67.3405 85.2627 62.8771C90.4621 58.4136 94.1988 52.7306 96.0588 46.4576C89.802 50.5416 82.1057 52.387 74.4434 51.6406V51.6406Z" fill="#FFB842"/>
<path d="M48.6241 28.0538C47.6127 24.7536 47.324 21.3054 47.7744 17.9043C48.6987 10.9756 53.633 4.37163 64.1723 2.47706C64.2795 2.44761 64.3735 2.38763 64.4402 2.30599C64.507 2.22435 64.543 2.12538 64.543 2.02371C64.543 1.92204 64.507 1.82307 64.4402 1.74143C64.3735 1.65979 64.2795 1.59981 64.1723 1.57037C45.27 -3.61265 26.5168 9.81177 20.5986 22.4784C26.4273 31.7753 46.403 29.8266 48.6241 28.0538Z" fill="#CFABF3"/>
<path d="M35.4908 36.0111H35.2374C33.7278 35.8675 32.2661 35.4468 30.9412 34.7745C29.6163 34.1021 28.4558 33.1923 27.5303 32.1001C27.4665 32.0272 27.4196 31.9432 27.3925 31.8534C27.3654 31.7635 27.3586 31.6696 27.3725 31.5773C27.3864 31.485 27.4208 31.3962 27.4736 31.3163C27.5263 31.2363 27.5963 31.1669 27.6794 31.1122C27.8458 30.9981 28.0551 30.9483 28.2617 30.9736C28.4683 30.999 28.6556 31.0974 28.7825 31.2476C28.7825 31.2476 31.5404 34.4819 35.297 34.5901C37.6225 34.5901 39.9182 33.5075 42.1096 31.207C42.2497 31.0661 42.4448 30.9802 42.6535 30.9676C42.8622 30.9549 43.0681 31.0165 43.2276 31.1393C43.3057 31.2002 43.3697 31.2745 43.4158 31.3581C43.4619 31.4416 43.4892 31.5326 43.4961 31.6258C43.5031 31.7191 43.4895 31.8126 43.4562 31.901C43.4229 31.9894 43.3705 32.0709 43.3022 32.1407C40.8574 34.7119 38.2337 36.0111 35.4908 36.0111Z" fill="#4F4840"/>
<path d="M35.998 35.5239H35.0886V39.6378H35.998V35.5239Z" fill="#4F4840"/>
<path d="M37.1122 35.2703L36.2236 35.4456L37.186 39.4657L38.0746 39.2904L37.1122 35.2703Z" fill="#4F4840"/>
<path d="M38.4487 34.9262L37.5825 35.1776L38.9626 39.0962L39.8287 38.8448L38.4487 34.9262Z" fill="#4F4840"/>
<path d="M39.6064 34.4608L38.7834 34.812L40.7116 38.535L41.5345 38.1838L39.6064 34.4608Z" fill="#4F4840"/>
<path d="M40.7004 33.8526L39.9329 34.2953L42.3631 37.7676L43.1306 37.325L40.7004 33.8526Z" fill="#4F4840"/>
<path d="M41.7425 33.0545L41.0088 33.5422L43.6859 36.8615L44.4196 36.3739L41.7425 33.0545Z" fill="#4F4840"/>
<path d="M42.7042 32.3293L42.0173 32.8702L44.9869 35.9778L45.6738 35.4369L42.7042 32.3293Z" fill="#4F4840"/>
<path d="M33.9237 35.266L32.9614 39.2861L33.85 39.4614L34.8123 35.4413L33.9237 35.266Z" fill="#4F4840"/>
<path d="M32.592 34.9101L31.2112 38.8284L32.0773 39.08L33.4581 35.1616L32.592 34.9101Z" fill="#4F4840"/>
<path d="M31.442 34.4652L29.5139 38.1882L30.3368 38.5395L32.265 34.8164L31.442 34.4652Z" fill="#4F4840"/>
<path d="M30.3321 33.8487L27.9038 37.3223L28.6716 37.7646L31.0999 34.2911L30.3321 33.8487Z" fill="#4F4840"/>
<path d="M29.2955 33.0703L26.6184 36.3896L27.3521 36.8773L30.0293 33.5579L29.2955 33.0703Z" fill="#4F4840"/>
<path d="M28.3393 32.3276L25.3704 35.4357L26.0574 35.9765L29.0263 32.8684L28.3393 32.3276Z" fill="#4F4840"/>
<path d="M64.903 49.3272C62.0679 51.3283 58.6215 52.4862 55.0345 52.6427C51.6952 52.5345 48.684 50.5722 46.6119 48.8942C46.1986 49.2218 45.7547 49.5161 45.2852 49.7738C53.6928 58.6377 64.2918 53.2246 67.6906 50.3286C66.7154 50.112 65.7774 49.7751 64.903 49.3272V49.3272Z" fill="#4F4840"/>
<path d="M43.9436 50.7482C43.5344 50.7505 43.1271 50.6957 42.7362 50.5858C42.662 50.5591 42.5945 50.5192 42.5377 50.4684C42.4808 50.4176 42.4358 50.357 42.4052 50.2901C42.3746 50.2232 42.3591 50.1514 42.3596 50.079C42.3602 50.0066 42.3767 49.935 42.4082 49.8685C42.468 49.7325 42.5846 49.6234 42.7326 49.5651C42.8806 49.5068 43.048 49.504 43.1983 49.5573C43.3026 49.5573 45.7772 50.3828 47.8344 46.9184C47.9162 46.7973 48.046 46.7092 48.1971 46.6724C48.3482 46.6355 48.5091 46.6527 48.6467 46.7204C48.7843 46.788 48.8881 46.901 48.9366 47.036C48.9852 47.1711 48.9748 47.3179 48.9077 47.4462C47.253 50.2474 45.2108 50.7482 43.9436 50.7482Z" fill="#4F4840"/>
<path d="M112.248 79.7081C111.011 74.5386 98.742 74.6334 93.122 77.8406C96.6699 76.6227 102.364 72.184 97.8029 69.1797C94.8214 67.2445 90.3493 68.6384 86.8014 72.4817C88.7354 70.7657 90.3871 68.8059 91.7058 66.6626C93.8376 63.6584 94.255 57.8934 89.1567 55.4846C84.8634 53.4547 78.3192 55.0922 75.1141 60.0181C72.0433 64.741 72.1327 71.3314 72.1327 71.3314C72.1327 68.6249 72.0283 63.4689 66.2891 63.8749C60.3262 64.3079 61.8169 71.2502 61.6828 74.701C61.6828 74.701 61.9064 64.6462 55.3472 60.9112C53.9153 60.0089 52.2541 59.4522 50.5198 59.2936C48.7855 59.135 47.0353 59.3796 45.4339 60.0045C43.6171 60.6582 42.1354 61.9052 41.2803 63.5005C40.4251 65.0957 40.2583 66.9236 40.8127 68.6249C41.9456 72.6847 46.5818 76.2032 46.5818 76.2032C44.104 74.963 41.4975 73.9476 38.8002 73.1718C33.5082 72.1434 24.9515 71.8186 21.5526 76.2438C18.1538 80.6689 23.0433 86.9075 32.8821 87.1782C39.3369 87.3676 94.2699 87.5706 100.74 87.5706C105.853 87.6247 113.485 85.1077 112.248 79.7081Z" fill="#CFABF3"/>
<path d="M68.8533 28.947L59.909 29.38L59.8196 27.8644L65.4694 20.5702L60.0134 20.8409L59.8196 19.1629L67.8993 18.7839L67.9887 20.259L62.324 27.5802L68.7639 27.2825L68.8533 28.947Z" fill="#4F4840"/>
<path d="M70.955 25.036L70.2544 23.4527L74.1154 22.0994L74.816 23.7504L70.955 25.036Z" fill="#4F4840"/>
<path d="M78.4236 25.4556L77.5888 24.2241L78.1851 18.1073L75.0248 19.8936L74.175 18.6351L79.4373 15.6714L80.287 16.9165L79.6907 23.0062L83.4473 20.8815L84.3119 22.1536L78.4236 25.4556Z" fill="#4F4840"/>
<path d="M84.5652 18.1073L83.0745 16.9841L85.7279 14.0881L87.2187 15.2113L84.5652 18.1073Z" fill="#4F4840"/>
<path d="M91.3481 14.6159L89.8574 14.0069L86.7269 8.56679L85.1616 11.6522L83.6709 11.0297L86.2946 5.92792L87.7853 6.55042L90.9605 11.9635L92.809 8.29614L94.2997 8.93217L91.3481 14.6159Z" fill="#4F4840"/>
<path d="M17.7812 16.0909L14.9786 13.0326L10.6257 13.3844L12.9662 10.0283L11.2518 6.37447L15.4855 7.36236L18.78 4.75055L19.0632 8.71563L22.8198 10.7591L18.7501 12.2206L17.7812 16.0909Z" fill="#FFB842"/>
<path d="M96.2229 33.4804L93.9719 29.6642L89.2166 29.1771L92.5259 26.051L91.557 21.8017L95.8651 23.6963L100.009 21.5446L99.3683 25.848L102.901 28.7711L98.1907 29.5424L96.2229 33.4804Z" fill="#FFB842"/>
<path d="M75.9193 41.7895L73.728 39.0695L70.0161 39.1642L72.1926 36.4306L70.9553 33.2504L74.4883 34.2789L77.425 32.2219L77.4399 35.6051L80.5108 37.4997L76.9778 38.5552L75.9193 41.7895Z" fill="#FFB842"/>
</svg>
